<svg id="svg" version="1.1" xmlns="http://www.w3.org/2000/svg" xmlns:xlink="http://www.w3.org/1999/xlink" width="400" height="347.4285714285714" viewBox="0, 0, 400,347.4285714285714"><g id="svgg"><path id="path0" d="M185.164 43.005 C 185.105 43.149,185.135 74.818,185.230 113.380 C 185.326 151.942,185.287 183.493,185.143 183.493 C 185.000 183.493,184.883 183.666,184.883 183.877 C 184.883 184.089,185.112 184.174,185.393 184.066 C 185.673 183.959,186.010 184.044,186.142 184.257 C 186.296 184.507,186.220 184.544,185.925 184.361 C 185.624 184.175,185.554 184.216,185.718 184.481 C 185.855 184.702,186.270 184.883,186.641 184.883 C 187.012 184.883,187.315 185.021,187.315 185.190 C 187.315 185.359,187.667 185.577,188.097 185.676 C 189.059 185.896,191.249 186.731,191.486 186.968 C 191.581 187.063,192.050 187.196,192.528 187.262 C 193.006 187.329,193.565 187.521,193.770 187.689 C 193.993 187.871,194.319 187.822,194.577 187.568 C 194.920 187.230,194.987 187.249,194.899 187.655 C 194.834 187.950,195.082 188.213,195.482 188.276 C 196.219 188.390,196.275 174.912,195.916 83.384 L 195.830 61.294 196.587 61.439 C 197.121 61.541,197.281 61.752,197.130 62.156 C 196.943 62.656,196.991 62.667,197.510 62.245 C 198.031 61.821,198.077 61.833,197.880 62.345 C 197.714 62.779,197.936 63.036,198.741 63.340 C 199.338 63.565,199.826 63.871,199.826 64.021 C 199.826 64.170,200.078 64.292,200.385 64.292 C 200.747 64.292,200.870 64.102,200.736 63.753 C 200.608 63.420,200.672 63.302,200.903 63.444 C 201.109 63.571,201.208 63.939,201.124 64.261 C 201.023 64.646,201.193 64.863,201.618 64.895 C 201.974 64.922,202.732 65.277,203.302 65.683 C 203.873 66.089,204.486 66.330,204.665 66.220 C 205.003 66.011,205.545 66.636,205.556 67.246 C 205.559 67.437,205.875 67.601,206.256 67.610 C 206.638 67.619,206.919 67.791,206.881 67.993 C 206.841 68.200,207.167 68.291,207.632 68.202 C 208.211 68.092,208.567 68.259,208.840 68.769 C 209.053 69.167,209.852 69.779,210.615 70.129 C 211.379 70.479,211.923 70.874,211.826 71.007 C 211.728 71.140,211.829 71.096,212.050 70.910 C 212.322 70.681,212.610 70.764,212.942 71.168 C 213.211 71.495,213.317 71.544,213.178 71.276 C 213.011 70.955,213.062 70.872,213.326 71.035 C 213.547 71.172,213.727 71.509,213.727 71.784 C 213.727 72.060,213.879 72.285,214.064 72.285 C 214.249 72.285,214.322 72.011,214.227 71.677 C 214.131 71.342,214.238 71.421,214.465 71.851 C 214.691 72.281,215.087 72.632,215.344 72.632 C 215.602 72.632,215.812 72.796,215.812 72.995 C 215.812 73.195,216.008 73.316,216.247 73.266 C 216.486 73.215,217.124 73.589,217.664 74.098 C 218.205 74.606,218.850 74.945,219.097 74.850 C 219.343 74.755,219.638 74.919,219.751 75.213 C 219.874 75.533,220.180 75.663,220.511 75.535 C 220.889 75.391,221.129 75.560,221.260 76.063 C 221.371 76.487,221.733 76.803,222.108 76.803 C 222.468 76.803,222.763 76.985,222.763 77.208 C 222.763 77.431,222.866 77.511,222.991 77.385 C 223.117 77.259,223.428 77.329,223.682 77.540 C 223.936 77.751,224.398 77.826,224.708 77.707 C 225.114 77.551,225.216 77.638,225.071 78.015 C 224.946 78.343,225.070 78.540,225.401 78.540 C 225.693 78.540,225.835 78.697,225.717 78.888 C 225.596 79.084,225.877 79.235,226.362 79.235 C 226.836 79.235,227.309 79.040,227.415 78.801 C 227.521 78.562,227.573 78.679,227.531 79.062 C 227.474 79.580,227.653 79.750,228.236 79.729 C 228.666 79.714,229.018 79.839,229.018 80.006 C 229.018 80.553,230.841 82.016,231.522 82.016 C 231.888 82.016,232.099 82.158,231.991 82.333 C 231.761 82.705,232.467 82.642,233.125 82.232 C 233.376 82.075,233.676 82.040,233.791 82.155 C 233.906 82.269,233.816 82.363,233.591 82.363 C 232.790 82.363,234.009 83.725,235.006 83.945 C 235.539 84.062,235.886 84.301,235.777 84.477 C 235.669 84.652,235.893 84.796,236.275 84.796 C 236.658 84.796,237.068 84.955,237.188 85.149 C 237.308 85.343,237.943 85.726,238.599 86.000 L 239.791 86.498 239.791 137.400 C 239.791 192.471,239.733 190.688,241.525 190.357 C 241.810 190.304,242.318 190.537,242.655 190.874 C 242.991 191.210,243.619 191.488,244.049 191.491 C 244.681 191.495,244.731 191.561,244.309 191.833 C 243.908 192.092,244.029 192.173,244.831 192.181 C 245.536 192.188,245.723 192.287,245.409 192.485 C 245.057 192.709,245.119 192.825,245.670 192.969 C 246.069 193.073,246.308 193.017,246.201 192.843 C 246.094 192.670,246.158 192.528,246.345 192.528 C 246.531 192.528,246.841 192.958,247.033 193.484 C 247.225 194.010,247.394 194.253,247.410 194.025 C 247.425 193.797,247.927 194.057,248.526 194.604 C 250.710 196.600,250.565 200.625,250.565 138.173 C 250.565 94.256,250.661 81.016,250.982 80.695 C 251.306 80.371,251.306 80.278,250.982 80.278 C 250.752 80.278,250.565 80.434,250.565 80.626 C 250.565 80.817,250.435 80.973,250.276 80.973 C 250.118 80.973,250.001 80.699,250.016 80.365 C 250.031 80.030,249.912 79.728,249.751 79.693 C 249.590 79.658,249.243 79.345,248.980 78.998 C 248.717 78.651,248.494 78.523,248.485 78.714 C 248.474 78.946,248.384 78.946,248.214 78.714 C 247.730 78.055,245.761 77.149,245.245 77.347 C 244.960 77.456,244.622 77.376,244.494 77.168 C 244.366 76.961,244.092 76.896,243.884 77.025 C 243.677 77.153,243.597 77.112,243.707 76.934 C 244.161 76.200,242.685 74.887,242.016 75.430 C 241.636 75.739,241.497 75.766,241.657 75.500 C 241.800 75.261,241.765 75.065,241.579 75.065 C 241.392 75.065,241.158 75.261,241.059 75.500 C 240.959 75.738,240.907 75.543,240.943 75.065 C 240.993 74.395,240.861 74.221,240.365 74.306 C 240.011 74.367,239.815 74.266,239.928 74.082 C 240.042 73.898,239.889 73.653,239.587 73.538 C 238.717 73.204,238.339 73.292,238.621 73.762 C 238.801 74.061,238.700 74.048,238.298 73.723 C 237.977 73.462,237.799 73.111,237.904 72.942 C 238.008 72.773,237.682 72.448,237.180 72.219 C 236.434 71.880,236.208 71.895,235.949 72.305 C 235.708 72.686,235.629 72.598,235.621 71.937 C 235.613 71.248,235.541 71.176,235.274 71.590 C 235.006 72.004,234.935 71.932,234.926 71.242 C 234.918 70.553,234.846 70.481,234.579 70.895 C 234.334 71.274,234.240 71.292,234.236 70.961 C 234.233 70.711,234.114 70.574,233.970 70.657 C 233.827 70.740,233.397 70.682,233.015 70.528 C 232.397 70.280,232.390 70.246,232.948 70.224 C 233.299 70.211,233.476 70.037,233.350 69.832 C 233.223 69.628,232.697 69.557,232.166 69.674 C 231.361 69.851,231.061 69.689,230.270 68.652 C 229.458 67.587,228.270 66.838,228.830 67.743 C 228.940 67.921,228.846 68.180,228.623 68.318 C 228.378 68.469,228.309 68.419,228.449 68.192 C 228.577 67.985,228.521 67.715,228.323 67.593 C 228.126 67.471,228.054 67.227,228.164 67.049 C 228.283 66.856,228.013 66.860,227.491 67.058 C 226.818 67.314,226.659 67.286,226.793 66.935 C 226.990 66.422,225.347 65.200,224.862 65.499 C 224.690 65.606,224.444 65.524,224.316 65.316 C 224.187 65.109,223.872 65.020,223.614 65.119 C 223.304 65.238,223.215 65.119,223.351 64.765 C 223.504 64.364,223.357 64.261,222.757 64.349 C 222.318 64.413,221.892 64.270,221.810 64.031 C 221.714 63.750,221.887 63.662,222.299 63.781 C 222.650 63.883,222.546 63.770,222.068 63.530 C 221.590 63.291,221.101 62.956,220.982 62.787 C 220.862 62.618,220.413 62.592,219.982 62.728 C 219.400 62.913,219.270 62.864,219.472 62.537 C 219.673 62.211,219.527 62.152,218.908 62.309 C 218.108 62.510,218.101 62.498,218.746 62.016 C 219.302 61.600,219.322 61.512,218.861 61.512 C 218.554 61.512,218.094 61.459,217.839 61.395 C 217.584 61.331,217.493 61.344,217.637 61.424 C 217.780 61.504,217.897 61.732,217.897 61.931 C 217.897 62.155,217.708 62.135,217.397 61.876 C 217.122 61.648,216.989 61.220,217.102 60.925 C 217.265 60.501,217.143 60.441,216.516 60.640 C 216.081 60.778,215.809 60.756,215.911 60.590 C 216.014 60.425,215.486 59.992,214.739 59.628 C 213.991 59.265,213.380 58.817,213.380 58.633 C 213.380 58.449,213.142 58.497,212.850 58.738 C 212.418 59.097,212.354 59.089,212.503 58.694 C 212.793 57.925,210.666 56.856,209.970 57.420 C 209.539 57.769,209.479 57.770,209.686 57.426 C 209.993 56.915,209.027 55.808,208.538 56.110 C 208.358 56.222,208.083 56.115,207.928 55.872 C 207.297 54.884,206.490 54.504,205.802 54.872 C 204.909 55.350,204.542 54.935,205.305 54.309 C 205.637 54.037,205.712 53.914,205.474 54.035 C 205.235 54.156,205.039 54.072,205.039 53.850 C 205.039 53.627,204.806 53.534,204.522 53.643 C 204.238 53.752,204.042 53.706,204.088 53.541 C 204.133 53.376,204.014 53.212,203.823 53.176 C 203.632 53.141,203.319 52.989,203.128 52.839 C 202.937 52.688,202.507 52.610,202.172 52.664 C 201.838 52.718,201.564 52.561,201.564 52.314 C 201.564 52.068,201.329 51.671,201.043 51.434 C 200.425 50.921,200.335 51.456,200.938 52.059 C 201.168 52.288,201.207 52.474,201.025 52.471 C 200.571 52.463,199.760 51.926,199.797 51.655 C 199.898 50.901,199.765 50.688,199.305 50.864 C 198.982 50.988,198.784 50.862,198.784 50.533 C 198.784 50.241,198.632 50.096,198.448 50.210 C 198.263 50.324,197.912 50.099,197.669 49.709 C 197.425 49.320,196.942 49.001,196.594 49.001 C 196.247 49.001,196.059 49.157,196.177 49.348 C 196.295 49.540,196.229 49.696,196.031 49.696 C 195.832 49.696,195.573 49.314,195.456 48.848 C 195.273 48.117,195.128 48.044,194.407 48.318 C 193.749 48.568,193.571 48.523,193.571 48.103 C 193.571 47.788,193.735 47.671,193.972 47.818 C 194.223 47.973,194.279 47.913,194.122 47.659 C 193.983 47.435,193.725 47.342,193.547 47.452 C 193.369 47.562,193.221 47.369,193.218 47.023 C 193.215 46.671,193.100 46.547,192.957 46.742 C 192.597 47.232,191.833 47.336,191.833 46.895 C 191.833 46.693,191.695 46.613,191.525 46.718 C 191.356 46.822,191.130 46.576,191.024 46.171 C 190.888 45.649,190.636 45.485,190.162 45.609 C 189.696 45.731,189.505 45.613,189.533 45.221 C 189.558 44.877,189.254 44.612,188.754 44.541 C 188.145 44.455,188.005 44.544,188.212 44.888 C 188.425 45.242,188.349 45.236,187.887 44.861 C 187.407 44.472,187.375 44.305,187.733 44.051 C 188.028 43.842,187.843 43.807,187.199 43.948 C 186.588 44.082,186.295 44.033,186.427 43.819 C 186.544 43.630,186.332 43.311,185.956 43.109 C 185.580 42.908,185.224 42.861,185.164 43.005 M143.180 77.187 C 143.180 77.399,142.945 77.482,142.659 77.372 C 141.944 77.098,141.857 141.697,142.572 142.466 C 142.923 142.845,142.912 142.881,142.513 142.653 C 142.141 142.440,142.077 142.521,142.252 142.977 C 142.380 143.311,142.485 143.661,142.485 143.754 C 142.485 143.848,143.032 143.344,143.701 142.635 C 144.370 141.925,144.917 141.218,144.917 141.063 C 144.917 140.908,145.191 140.622,145.526 140.427 C 146.092 140.098,146.088 140.073,145.472 140.063 C 144.852 140.053,144.858 140.012,145.559 139.403 C 145.971 139.046,146.310 138.538,146.313 138.274 C 146.317 137.878,146.370 137.875,146.612 138.257 C 146.836 138.610,146.952 138.547,147.096 137.996 C 147.212 137.553,147.567 137.272,148.013 137.272 C 148.651 137.272,148.890 136.940,148.795 136.184 C 148.780 136.063,149.101 135.672,149.509 135.315 C 149.916 134.958,150.142 134.850,150.011 135.076 C 149.879 135.302,149.907 135.570,150.072 135.672 C 150.238 135.774,150.570 135.490,150.811 135.039 C 151.052 134.589,151.610 134.028,152.051 133.792 C 153.018 133.274,153.485 132.018,152.611 132.285 C 152.142 132.428,152.149 132.390,152.650 132.068 C 153.219 131.702,153.258 130.238,153.258 109.453 L 153.258 87.228 164.726 87.228 L 176.195 87.228 176.195 82.565 C 176.195 80.001,176.100 77.655,175.984 77.352 C 175.718 76.659,143.180 76.495,143.180 77.187 M174.233 127.275 C 174.139 127.428,173.889 127.446,173.679 127.316 C 173.434 127.165,173.375 127.284,173.514 127.647 C 173.634 127.959,173.582 128.306,173.399 128.419 C 173.216 128.532,173.065 128.420,173.062 128.170 C 173.057 127.797,173.004 127.798,172.766 128.173 C 172.607 128.424,172.257 128.665,171.990 128.707 C 171.722 128.750,171.042 129.090,170.480 129.464 C 169.917 129.837,169.135 130.100,168.742 130.049 C 168.094 129.963,168.084 129.989,168.636 130.329 C 168.970 130.535,169.242 130.891,169.239 131.121 C 169.236 131.379,169.099 131.339,168.881 131.017 C 168.587 130.581,168.356 130.695,167.479 131.712 C 166.844 132.446,166.530 132.653,166.685 132.233 C 166.913 131.615,166.876 131.591,166.355 132.015 C 166.033 132.277,165.769 132.640,165.769 132.822 C 165.769 133.209,164.888 134.144,164.524 134.144 C 164.385 134.144,164.554 133.831,164.900 133.449 C 165.733 132.529,165.375 132.570,163.913 133.563 C 162.877 134.266,162.795 134.420,163.289 134.740 C 163.739 135.032,163.647 135.070,162.850 134.924 C 162.101 134.786,161.912 134.850,162.112 135.174 C 162.311 135.496,162.178 135.544,161.599 135.361 C 161.085 135.197,160.894 135.238,161.044 135.480 C 161.168 135.682,160.949 136.019,160.556 136.229 C 160.163 136.440,159.936 136.764,160.051 136.950 C 160.166 137.137,160.131 137.268,159.974 137.243 C 159.241 137.125,158.079 137.725,158.517 137.995 C 158.840 138.195,158.693 138.379,157.999 138.643 C 157.086 138.990,155.734 140.052,156.205 140.052 C 156.324 140.052,156.000 140.443,155.484 140.921 C 154.968 141.399,154.413 141.790,154.250 141.790 C 154.087 141.790,153.953 142.024,153.953 142.311 C 153.953 142.598,153.780 142.832,153.568 142.832 C 153.357 142.832,153.263 143.039,153.360 143.291 C 153.473 143.586,153.270 143.740,152.789 143.725 C 152.285 143.709,152.057 143.898,152.089 144.306 C 152.116 144.638,151.998 144.824,151.829 144.719 C 151.659 144.615,151.520 144.695,151.520 144.897 C 151.520 145.099,151.686 145.265,151.888 145.265 C 152.091 145.265,152.164 145.415,152.051 145.597 C 151.938 145.780,151.641 145.851,151.390 145.755 C 150.896 145.565,148.576 147.545,148.551 148.179 C 148.542 148.392,148.335 148.523,148.090 148.471 C 147.846 148.418,147.745 148.536,147.866 148.732 C 147.987 148.927,148.312 149.088,148.587 149.088 C 148.984 149.088,148.962 149.220,148.480 149.728 C 148.145 150.080,147.737 150.295,147.574 150.205 C 147.410 150.116,147.373 150.350,147.492 150.724 C 147.639 151.189,147.546 151.405,147.197 151.405 C 146.916 151.405,146.780 151.235,146.895 151.028 C 147.011 150.821,146.753 151.014,146.323 151.458 C 145.750 152.048,145.583 152.550,145.698 153.336 C 145.841 154.306,145.811 154.347,145.386 153.767 C 144.940 153.157,144.917 153.162,144.917 153.887 C 144.917 154.305,144.776 154.648,144.604 154.648 C 144.114 154.648,143.502 156.667,143.947 156.815 C 144.163 156.887,144.069 157.185,143.720 157.534 C 143.392 157.862,142.953 158.024,142.745 157.896 C 142.505 157.747,142.446 157.869,142.584 158.229 C 142.704 158.541,142.635 158.899,142.431 159.025 C 142.220 159.156,142.143 159.764,142.252 160.436 C 142.400 161.345,142.296 161.710,141.804 162.018 C 141.452 162.238,141.237 162.608,141.327 162.842 C 141.416 163.075,141.320 163.371,141.113 163.499 C 140.905 163.627,140.827 163.880,140.939 164.061 C 141.051 164.242,141.312 164.285,141.520 164.157 C 141.745 164.018,141.797 164.086,141.649 164.325 C 141.513 164.546,141.157 164.726,140.858 164.726 C 140.391 164.726,140.382 164.809,140.792 165.314 C 141.116 165.714,141.129 165.819,140.834 165.641 C 140.564 165.479,140.400 165.577,140.400 165.902 C 140.400 166.188,140.541 166.511,140.715 166.618 C 140.888 166.725,140.948 167.123,140.849 167.503 C 140.749 167.883,140.530 168.108,140.360 168.003 C 140.191 167.899,140.052 167.979,140.052 168.181 C 140.052 168.383,140.248 168.551,140.487 168.554 C 140.776 168.558,140.748 168.669,140.402 168.888 C 139.654 169.361,139.515 179.966,140.253 180.250 C 140.523 180.353,140.663 180.568,140.564 180.727 C 140.466 180.887,140.662 181.195,141.001 181.412 C 141.574 181.781,141.572 181.793,140.961 181.600 C 140.085 181.324,140.405 183.679,141.339 184.387 C 141.683 184.648,141.842 184.866,141.694 184.872 C 141.546 184.878,141.669 185.356,141.969 185.935 C 142.268 186.515,142.404 187.164,142.272 187.379 C 142.117 187.630,142.187 187.673,142.468 187.499 C 142.782 187.306,142.849 187.414,142.704 187.880 C 142.453 188.684,142.964 189.575,143.489 189.251 C 143.701 189.119,143.875 189.178,143.875 189.380 C 143.875 189.582,143.707 189.748,143.503 189.748 C 143.298 189.748,143.376 189.994,143.676 190.294 C 143.977 190.595,144.222 191.161,144.222 191.553 C 144.222 192.179,144.294 192.208,144.810 191.789 C 145.191 191.480,145.308 191.462,145.142 191.739 C 144.826 192.265,145.492 193.595,146.014 193.480 C 146.223 193.435,146.473 193.614,146.570 193.880 C 146.690 194.211,146.594 194.277,146.266 194.089 C 146.002 193.939,146.138 194.158,146.568 194.576 C 146.998 194.994,147.350 195.486,147.350 195.669 C 147.350 195.853,147.542 195.964,147.776 195.917 C 148.011 195.869,148.254 196.163,148.316 196.571 C 148.435 197.344,150.199 199.131,150.843 199.131 C 151.047 199.131,151.128 199.270,151.023 199.441 C 150.918 199.611,151.377 200.009,152.045 200.326 C 152.712 200.642,153.258 201.056,153.258 201.245 C 153.258 202.300,154.426 203.380,154.886 202.751 C 155.333 202.140,155.549 202.543,155.395 203.703 C 155.379 203.828,155.603 204.022,155.894 204.133 C 156.246 204.269,156.340 204.193,156.177 203.906 C 156.042 203.669,156.248 203.788,156.635 204.170 C 157.023 204.553,157.257 205.007,157.156 205.180 C 157.056 205.353,157.134 205.395,157.330 205.274 C 157.743 205.019,159.166 206.148,159.166 206.731 C 159.166 206.947,159.509 207.124,159.927 207.124 C 160.647 207.124,160.654 207.099,160.055 206.661 C 159.506 206.259,159.497 206.198,159.989 206.198 C 160.549 206.198,160.699 206.508,160.575 207.415 C 160.531 207.734,160.737 207.809,161.229 207.653 C 161.796 207.473,161.946 207.576,161.946 208.143 C 161.946 208.598,162.169 208.860,162.554 208.857 C 163.074 208.852,163.087 208.802,162.641 208.514 C 162.245 208.259,162.232 208.176,162.587 208.172 C 162.844 208.169,163.139 208.492,163.243 208.890 C 163.376 209.398,163.631 209.561,164.100 209.438 C 164.522 209.328,164.850 209.478,164.989 209.845 C 165.320 210.721,166.031 211.331,166.784 211.388 C 167.155 211.416,167.430 211.582,167.396 211.758 C 167.361 211.933,167.553 212.156,167.823 212.254 C 168.162 212.377,168.245 212.257,168.094 211.863 C 167.974 211.550,168.017 211.295,168.189 211.295 C 168.361 211.295,168.602 211.607,168.723 211.990 C 168.844 212.372,169.099 212.685,169.288 212.685 C 169.478 212.685,169.520 212.489,169.383 212.250 C 169.237 211.998,169.265 211.937,169.449 212.105 C 169.623 212.265,169.765 212.510,169.765 212.652 C 169.765 213.281,170.893 213.948,171.761 213.832 C 172.476 213.736,172.659 213.828,172.511 214.212 C 172.365 214.593,172.518 214.675,173.126 214.541 C 173.620 214.432,173.777 214.477,173.528 214.657 C 173.243 214.863,173.375 215.072,173.963 215.350 C 174.599 215.650,174.748 215.649,174.571 215.345 C 174.443 215.124,174.638 215.197,175.005 215.506 C 175.373 215.816,175.865 216.000,176.099 215.915 C 176.527 215.759,178.181 216.724,178.019 217.035 C 177.780 217.495,177.985 217.657,178.259 217.225 C 178.516 216.818,178.672 216.807,179.107 217.168 C 179.400 217.411,179.827 217.494,180.056 217.352 C 180.319 217.190,180.381 217.242,180.224 217.496 C 180.067 217.751,180.245 217.897,180.712 217.897 C 181.203 217.897,181.365 217.753,181.199 217.463 C 181.053 217.211,181.081 217.150,181.265 217.318 C 181.439 217.478,181.581 217.790,181.581 218.013 C 181.581 218.236,181.933 218.469,182.363 218.530 C 182.793 218.591,183.145 218.781,183.145 218.953 C 183.145 219.125,183.364 219.182,183.631 219.079 C 183.899 218.977,184.221 219.060,184.347 219.264 C 184.689 219.817,185.230 219.712,185.230 219.093 C 185.230 218.792,185.398 218.655,185.608 218.785 C 185.816 218.913,185.904 219.330,185.805 219.710 C 185.655 220.285,185.764 220.376,186.452 220.244 C 186.921 220.154,187.352 220.272,187.445 220.515 C 187.538 220.756,188.073 220.905,188.661 220.855 C 189.295 220.801,189.977 221.013,190.382 221.390 C 190.878 221.852,191.154 221.913,191.443 221.624 C 191.732 221.335,191.833 221.357,191.833 221.709 C 191.833 221.970,191.930 222.087,192.048 221.968 C 192.167 221.850,192.502 221.992,192.794 222.284 C 193.086 222.575,193.419 222.680,193.534 222.516 C 193.826 222.103,194.588 222.164,194.887 222.624 C 195.023 222.835,195.576 222.986,196.116 222.959 C 196.655 222.933,197.188 223.059,197.299 223.238 C 197.410 223.418,197.320 223.454,197.100 223.317 C 196.879 223.181,196.700 223.196,196.702 223.350 C 196.711 224.038,199.528 224.848,200.060 224.316 C 200.644 223.732,201.014 223.637,200.695 224.153 C 200.577 224.344,200.655 224.500,200.869 224.500 C 201.083 224.500,201.181 224.624,201.088 224.774 C 200.995 224.925,201.416 225.248,202.023 225.492 C 202.631 225.736,203.424 226.098,203.786 226.295 C 204.345 226.600,204.411 226.557,204.220 226.012 C 204.005 225.397,204.016 225.396,204.480 225.993 C 204.829 226.443,205.219 226.554,205.871 226.390 C 206.579 226.212,206.777 226.291,206.777 226.749 C 206.777 227.216,206.983 227.291,207.786 227.114 C 208.372 226.985,208.893 227.049,209.027 227.266 C 209.154 227.471,209.401 227.551,209.577 227.442 C 209.753 227.333,209.803 227.489,209.688 227.788 C 209.553 228.139,209.647 228.288,209.953 228.210 C 210.213 228.144,210.308 228.155,210.165 228.235 C 210.022 228.316,209.904 232.052,209.904 236.539 C 209.904 241.827,210.025 244.623,210.248 244.486 C 210.445 244.364,210.503 244.503,210.385 244.813 C 210.240 245.188,210.387 245.352,210.867 245.352 C 211.593 245.352,212.452 244.581,212.160 244.190 C 212.066 244.065,212.088 244.034,212.209 244.123 C 212.330 244.212,212.760 244.101,213.165 243.876 C 213.570 243.651,214.013 243.498,214.149 243.536 C 214.286 243.575,214.308 243.374,214.200 243.091 C 214.091 242.807,213.838 242.677,213.637 242.801 C 213.419 242.936,213.376 242.859,213.531 242.608 C 213.712 242.315,213.919 242.298,214.225 242.552 C 214.464 242.751,214.776 242.797,214.918 242.656 C 215.059 242.514,215.358 242.398,215.581 242.398 C 215.804 242.398,216.006 242.202,216.030 241.964 C 216.053 241.725,216.093 241.341,216.116 241.112 C 216.150 240.788,216.253 240.788,216.577 241.112 C 217.151 241.686,217.665 241.636,217.433 241.029 C 217.308 240.704,217.507 240.489,218.004 240.413 C 218.423 240.349,218.729 240.110,218.684 239.883 C 218.638 239.655,218.799 239.545,219.040 239.638 C 219.719 239.898,221.777 238.250,221.331 237.804 C 221.074 237.547,221.094 237.358,221.396 237.171 C 221.674 236.999,221.740 237.046,221.580 237.305 C 221.111 238.064,222.371 237.714,222.917 236.934 C 223.428 236.204,223.459 236.199,223.480 236.847 C 223.498 237.424,223.556 237.397,223.845 236.673 C 224.220 235.734,225.543 234.345,225.543 234.891 C 225.543 235.078,225.833 235.209,226.187 235.182 C 226.626 235.149,226.779 234.935,226.668 234.509 C 226.578 234.165,226.688 233.884,226.913 233.884 C 227.138 233.884,227.225 234.040,227.107 234.231 C 226.989 234.422,227.076 234.579,227.301 234.579 C 227.551 234.579,227.633 234.276,227.512 233.797 C 227.342 233.122,227.373 233.092,227.737 233.577 C 228.092 234.050,228.228 234.064,228.602 233.663 C 228.860 233.388,228.894 233.189,228.684 233.189 C 228.486 233.189,228.323 233.037,228.323 232.852 C 228.323 232.667,228.565 232.608,228.861 232.722 C 229.168 232.840,229.593 232.663,229.851 232.310 C 230.134 231.923,230.473 231.797,230.757 231.973 C 231.041 232.148,231.126 232.117,230.985 231.889 C 230.798 231.585,231.200 231.252,232.146 230.931 C 234.171 230.241,235.452 229.270,236.191 227.864 C 236.611 227.067,236.801 226.962,237.207 227.299 C 237.670 227.683,237.859 227.513,237.739 226.820 C 237.712 226.663,237.850 226.634,238.048 226.756 C 238.245 226.877,238.500 226.733,238.615 226.434 C 238.729 226.135,238.972 225.891,239.154 225.891 C 239.336 225.891,239.388 226.047,239.270 226.238 C 239.152 226.429,239.218 226.586,239.417 226.586 C 239.616 226.586,239.880 226.180,240.005 225.684 C 240.154 225.087,240.320 224.926,240.494 225.207 C 240.846 225.776,241.628 225.261,241.383 224.621 C 241.277 224.344,241.328 224.202,241.497 224.307 C 241.666 224.411,241.907 224.228,242.033 223.900 C 242.223 223.403,242.312 223.386,242.567 223.797 C 242.805 224.183,243.011 224.048,243.504 223.182 C 243.851 222.571,244.272 222.071,244.439 222.070 C 244.605 222.069,244.527 222.332,244.265 222.656 C 243.854 223.163,243.860 223.203,244.309 222.946 C 245.726 222.138,246.732 221.291,246.576 221.038 C 246.480 220.883,246.674 220.778,247.006 220.804 C 247.393 220.834,247.592 220.624,247.559 220.220 C 247.530 219.873,247.582 219.665,247.675 219.757 C 248.031 220.113,249.871 219.191,249.894 218.645 C 249.914 218.184,249.970 218.203,250.181 218.741 C 250.433 219.384,250.453 219.385,250.689 218.769 C 250.828 218.407,250.766 218.022,250.547 217.887 C 250.295 217.731,250.380 217.562,250.790 217.405 C 251.136 217.272,251.474 217.323,251.539 217.520 C 251.615 217.747,251.825 217.723,252.118 217.453 C 252.370 217.220,252.496 216.895,252.396 216.731 C 252.297 216.567,252.548 216.538,252.954 216.667 C 253.501 216.841,253.692 216.755,253.692 216.334 C 253.692 215.952,253.892 215.828,254.301 215.954 C 254.893 216.138,257.341 214.340,257.341 213.721 C 257.341 213.565,257.484 213.307,257.658 213.148 C 257.842 212.980,257.869 213.040,257.724 213.293 C 257.570 213.560,257.679 213.727,258.005 213.727 C 258.334 213.727,258.460 213.529,258.336 213.206 C 258.190 212.827,258.377 212.685,259.021 212.685 C 259.508 212.685,259.975 212.567,260.058 212.424 C 260.366 211.890,259.682 210.777,259.045 210.775 C 258.681 210.774,258.424 210.575,258.473 210.332 C 258.522 210.090,258.170 209.713,257.691 209.495 C 257.212 209.276,256.820 208.967,256.820 208.806 C 256.820 208.646,256.498 208.514,256.105 208.514 C 255.711 208.514,255.485 208.360,255.601 208.171 C 255.724 207.972,255.581 207.917,255.260 208.040 C 254.901 208.177,254.742 208.084,254.808 207.775 C 254.863 207.513,254.713 207.337,254.474 207.385 C 254.235 207.433,254.040 207.315,254.040 207.124 C 254.040 206.933,253.722 206.777,253.334 206.777 C 252.946 206.777,252.538 206.542,252.428 206.255 C 252.318 205.969,252.079 205.734,251.897 205.734 C 251.715 205.734,251.662 205.889,251.779 206.078 C 251.898 206.271,251.767 206.335,251.478 206.225 C 251.197 206.116,250.882 205.808,250.779 205.539 C 250.662 205.235,250.357 205.139,249.970 205.284 C 249.405 205.495,249.396 205.458,249.870 204.874 C 250.359 204.270,250.343 204.256,249.609 204.647 C 248.918 205.015,248.827 204.982,248.827 204.356 C 248.827 203.967,248.710 203.674,248.566 203.704 C 247.902 203.845,247.034 203.203,247.495 202.911 C 247.825 202.701,247.728 202.616,247.156 202.612 C 246.706 202.609,246.449 202.452,246.570 202.256 C 246.798 201.887,245.364 201.188,244.917 201.451 C 244.774 201.536,244.657 201.361,244.657 201.063 C 244.657 200.765,244.422 200.521,244.136 200.521 C 243.849 200.521,243.614 200.380,243.614 200.208 C 243.614 200.036,243.127 199.929,242.531 199.970 C 241.635 200.033,241.392 199.883,241.120 199.105 C 240.872 198.392,240.609 198.198,240.031 198.304 C 239.613 198.381,239.464 198.351,239.702 198.238 C 240.190 198.006,239.800 197.534,238.519 196.810 C 237.964 196.496,237.699 196.496,237.379 196.810 C 237.149 197.036,237.006 197.063,237.060 196.872 C 237.301 196.023,236.200 194.999,235.466 195.390 C 234.819 195.734,234.798 195.714,235.242 195.177 C 235.643 194.690,235.650 194.509,235.277 194.164 C 234.922 193.835,234.877 193.838,235.069 194.179 C 235.233 194.468,235.063 194.613,234.562 194.613 C 234.101 194.613,233.874 194.444,233.977 194.177 C 234.129 193.779,233.452 192.851,233.022 192.868 C 232.048 192.908,231.789 192.824,231.972 192.528 C 232.270 192.046,231.679 192.092,231.181 192.590 C 230.868 192.903,230.805 192.827,230.914 192.262 C 231.016 191.733,230.915 191.580,230.558 191.717 C 230.285 191.822,230.061 191.725,230.061 191.502 C 230.061 191.279,229.904 191.194,229.713 191.312 C 229.522 191.430,229.366 191.205,229.366 190.811 C 229.366 190.418,229.209 190.096,229.018 190.096 C 228.827 190.096,228.671 190.339,228.671 190.637 C 228.671 190.935,228.512 191.081,228.318 190.961 C 228.123 190.841,228.054 190.597,228.164 190.419 C 228.274 190.241,228.189 190.096,227.976 190.096 C 227.762 190.096,227.656 189.978,227.739 189.835 C 227.823 189.692,227.334 189.210,226.652 188.765 C 225.936 188.297,225.607 188.191,225.874 188.512 C 226.270 188.989,226.254 189.037,225.766 188.850 C 225.452 188.730,225.195 188.419,225.195 188.159 C 225.195 187.609,223.842 186.779,223.170 186.916 C 222.917 186.968,222.625 186.688,222.522 186.294 C 222.357 185.667,221.801 185.400,220.938 185.537 C 220.795 185.559,220.678 185.349,220.678 185.069 C 220.678 184.517,219.359 183.645,218.719 183.773 C 218.502 183.817,218.234 183.618,218.124 183.331 C 218.014 183.044,217.699 182.896,217.425 183.001 C 217.150 183.106,216.822 183.025,216.696 182.821 C 216.569 182.616,216.720 182.450,217.033 182.450 C 218.115 182.450,216.605 181.364,215.478 181.332 C 214.911 181.316,214.532 181.163,214.638 180.992 C 214.967 180.459,214.082 179.730,213.221 179.825 C 212.715 179.880,212.457 179.761,212.552 179.514 C 212.637 179.294,212.154 178.850,211.479 178.529 C 210.804 178.207,210.252 178.097,210.252 178.285 C 210.252 178.473,210.408 178.627,210.599 178.627 C 210.791 178.627,210.947 179.194,210.947 179.886 C 210.947 180.950,210.869 181.080,210.440 180.724 C 210.014 180.370,209.965 180.433,210.136 181.116 C 210.498 182.558,210.490 184.535,210.123 184.535 C 209.911 184.535,209.936 184.705,210.182 184.952 C 210.642 185.411,210.763 186.415,210.326 186.145 C 210.176 186.052,210.053 186.516,210.053 187.176 C 210.053 188.010,210.189 188.323,210.500 188.204 C 210.746 188.109,210.947 188.171,210.947 188.340 C 210.947 188.510,211.043 188.898,211.159 189.202 C 211.306 189.584,211.220 189.698,210.880 189.567 C 210.499 189.421,210.421 189.654,210.532 190.603 C 210.611 191.277,210.814 191.741,210.985 191.636 C 211.155 191.531,211.295 191.688,211.295 191.986 C 211.295 192.284,211.172 192.528,211.023 192.528 C 210.514 192.528,210.608 194.195,211.128 194.394 C 211.411 194.503,211.640 194.792,211.637 195.037 C 211.633 195.348,211.530 195.325,211.295 194.961 C 211.109 194.674,210.944 194.518,210.928 194.613 C 210.666 196.138,210.640 198.165,210.886 197.799 C 211.139 197.423,211.237 197.437,211.405 197.876 C 211.519 198.173,211.363 198.665,211.059 198.970 C 210.646 199.383,210.605 199.624,210.900 199.918 C 211.387 200.405,211.422 200.989,210.947 200.695 C 210.756 200.577,210.599 200.620,210.599 200.790 C 210.599 200.961,210.365 201.100,210.078 201.100 C 209.791 201.100,209.557 200.952,209.557 200.770 C 209.557 200.589,209.211 200.531,208.788 200.641 C 208.327 200.762,207.776 200.623,207.413 200.294 C 207.080 199.993,206.344 199.727,205.777 199.704 C 205.210 199.681,204.773 199.504,204.806 199.310 C 204.839 199.116,204.396 198.906,203.823 198.844 C 203.249 198.781,202.632 198.586,202.450 198.409 C 202.268 198.233,201.760 198.089,201.321 198.089 C 200.881 198.089,200.521 197.932,200.521 197.741 C 200.521 197.550,200.404 197.410,200.261 197.431 C 199.776 197.501,198.436 196.967,198.436 196.703 C 198.436 196.295,195.163 196.025,194.923 196.413 C 194.804 196.605,194.614 196.505,194.492 196.188 C 194.364 195.856,194.417 195.708,194.617 195.832 C 194.806 195.949,194.961 195.879,194.961 195.676 C 194.961 195.474,194.343 195.308,193.589 195.308 C 192.607 195.308,191.950 195.061,191.279 194.440 C 190.763 193.962,190.070 193.571,189.737 193.571 C 189.405 193.571,188.691 193.342,188.151 193.062 C 187.273 192.606,187.102 192.613,186.532 193.129 C 185.984 193.625,185.924 193.630,186.104 193.162 C 186.318 192.604,185.581 192.094,184.477 192.037 C 184.159 192.020,183.768 191.865,183.608 191.691 C 183.437 191.503,183.531 191.488,183.840 191.655 C 184.249 191.875,184.273 191.840,183.953 191.493 C 183.728 191.250,182.946 191.007,182.215 190.952 C 181.484 190.898,180.808 190.821,180.712 190.781 C 180.617 190.741,180.410 190.731,180.252 190.758 C 180.095 190.785,180.069 190.640,180.196 190.435 C 180.355 190.178,180.596 190.202,180.973 190.513 C 181.462 190.917,181.469 190.884,181.046 190.205 C 180.786 189.787,180.477 189.505,180.359 189.578 C 179.947 189.832,177.487 188.792,177.173 188.230 C 176.998 187.918,176.697 187.663,176.504 187.663 C 176.311 187.663,176.250 187.819,176.368 188.010 C 176.487 188.202,176.349 188.358,176.062 188.358 C 175.775 188.358,175.442 188.199,175.322 188.005 C 175.202 187.811,174.968 187.736,174.801 187.839 C 174.321 188.135,173.094 186.606,173.327 186.001 C 173.483 185.593,173.383 185.515,172.925 185.691 C 172.590 185.820,172.240 185.925,172.149 185.925 C 172.058 185.925,172.095 186.106,172.231 186.327 C 172.388 186.581,172.326 186.633,172.061 186.469 C 171.741 186.271,171.738 186.096,172.050 185.721 C 172.274 185.451,172.399 185.218,172.328 185.204 C 171.140 184.960,171.044 184.987,171.246 185.513 C 171.411 185.946,171.296 185.918,170.743 185.392 C 170.348 185.016,169.917 184.357,169.785 183.927 C 169.653 183.497,169.312 183.145,169.026 183.145 C 168.741 183.145,168.605 183.301,168.723 183.493 C 168.841 183.684,168.708 183.840,168.427 183.840 C 168.140 183.840,167.954 183.576,168.004 183.239 C 168.116 182.474,167.292 181.632,166.755 181.964 C 166.483 182.131,166.416 182.033,166.556 181.670 C 166.702 181.289,166.506 181.059,165.905 180.908 C 165.432 180.789,165.129 180.557,165.231 180.391 C 165.334 180.226,165.167 179.994,164.862 179.877 C 164.545 179.756,164.392 179.441,164.506 179.146 C 164.626 178.831,164.504 178.627,164.194 178.627 C 163.913 178.627,163.684 178.462,163.684 178.259 C 163.684 178.057,163.527 177.988,163.336 178.106 C 163.141 178.226,162.989 177.954,162.989 177.485 C 162.989 177.026,162.680 176.370,162.302 176.028 C 161.924 175.686,161.714 175.247,161.834 175.052 C 161.960 174.849,161.882 174.803,161.652 174.945 C 161.432 175.081,161.251 175.018,161.251 174.805 C 161.251 174.591,161.103 174.508,160.922 174.620 C 160.738 174.733,160.658 174.485,160.740 174.059 C 160.835 173.562,160.635 173.118,160.168 172.791 C 159.677 172.447,159.499 172.025,159.607 171.461 C 159.787 170.515,159.299 170.320,159.058 171.242 C 158.957 171.629,158.884 171.512,158.859 170.924 C 158.837 170.414,158.623 169.918,158.384 169.822 C 158.125 169.717,158.194 169.635,158.558 169.619 C 158.892 169.604,159.164 169.474,159.161 169.331 C 159.153 168.939,158.331 166.699,158.013 166.203 C 157.850 165.949,157.896 165.769,158.122 165.769 C 158.357 165.769,158.453 165.324,158.367 164.639 C 158.288 164.018,158.078 163.538,157.901 163.572 C 157.723 163.606,157.577 163.350,157.577 163.003 C 157.577 162.581,157.754 162.439,158.111 162.572 C 158.560 162.740,158.573 162.683,158.193 162.216 C 157.905 161.861,157.868 161.583,158.091 161.445 C 158.283 161.326,158.359 161.015,158.258 160.754 C 158.158 160.493,158.246 160.174,158.453 160.046 C 158.660 159.918,158.740 159.667,158.630 159.489 C 158.520 159.312,158.595 159.166,158.798 159.166 C 159.000 159.166,159.166 158.922,159.166 158.624 C 159.166 158.317,158.999 158.185,158.782 158.319 C 158.571 158.450,158.689 158.113,159.043 157.571 C 159.474 156.912,159.524 156.687,159.194 156.891 C 158.822 157.120,158.755 157.052,158.922 156.617 C 159.054 156.274,158.972 156.034,158.721 156.028 C 158.488 156.022,158.571 155.858,158.905 155.663 C 159.240 155.468,159.524 154.886,159.538 154.370 C 159.560 153.533,159.595 153.507,159.861 154.127 C 160.123 154.737,160.163 154.746,160.184 154.202 C 160.198 153.860,160.457 153.203,160.760 152.740 C 161.063 152.277,161.217 151.746,161.102 151.560 C 160.986 151.373,161.062 151.116,161.269 150.988 C 161.476 150.860,161.563 150.539,161.461 150.274 C 161.359 150.008,161.596 149.623,161.992 149.411 C 162.448 149.167,162.646 148.796,162.539 148.385 C 162.446 148.032,162.576 147.664,162.826 147.568 C 163.080 147.470,163.205 147.096,163.107 146.724 C 162.983 146.248,163.150 145.999,163.691 145.858 C 164.108 145.748,164.354 145.506,164.238 145.318 C 164.122 145.130,164.191 144.922,164.392 144.855 C 164.593 144.788,164.784 144.380,164.816 143.948 C 164.853 143.465,165.048 143.229,165.322 143.334 C 165.593 143.438,165.769 143.236,165.769 142.821 C 165.769 142.445,165.925 142.137,166.116 142.137 C 166.308 142.137,166.464 141.919,166.464 141.653 C 166.464 141.387,166.715 141.073,167.021 140.955 C 167.333 140.836,167.493 140.518,167.384 140.234 C 167.277 139.955,167.326 139.643,167.492 139.540 C 167.658 139.437,167.874 139.549,167.971 139.789 C 168.081 140.062,168.157 140.006,168.174 139.641 C 168.189 139.320,168.673 138.722,169.248 138.312 C 169.824 137.902,170.206 137.422,170.097 137.245 C 169.987 137.069,170.142 136.924,170.440 136.924 C 170.997 136.924,171.185 136.401,170.721 136.142 C 170.578 136.061,170.651 136.041,170.884 136.097 C 171.117 136.153,171.401 136.047,171.516 135.861 C 171.631 135.675,171.895 135.628,172.102 135.756 C 172.319 135.890,172.380 135.829,172.246 135.612 C 172.118 135.405,172.404 134.813,172.881 134.298 C 173.358 133.783,173.666 133.227,173.564 133.062 C 173.462 132.897,173.614 132.853,173.903 132.963 C 174.265 133.102,174.501 132.876,174.662 132.231 C 174.791 131.718,174.993 131.452,175.111 131.640 C 175.488 132.240,176.089 131.224,176.054 130.046 C 176.036 129.433,176.134 128.931,176.273 128.931 C 176.412 128.931,176.379 128.548,176.201 128.079 C 175.929 127.364,175.968 127.262,176.440 127.443 C 176.819 127.588,176.920 127.525,176.750 127.249 C 176.475 126.804,174.512 126.824,174.233 127.275 M160.704 152.331 C 160.409 153.099,159.891 153.077,160.039 152.302 C 160.103 151.968,160.167 151.546,160.182 151.364 C 160.197 151.171,160.358 151.183,160.567 151.393 C 160.765 151.590,160.826 152.012,160.704 152.331 M173.903 186.917 C 174.638 187.746,174.805 187.821,174.805 187.328 C 174.805 187.143,174.453 186.808,174.023 186.582 C 173.245 186.174,173.244 186.176,173.903 186.917 M142.137 233.027 C 142.137 261.405,142.192 264.574,142.699 265.347 L 143.260 266.203 159.516 266.203 C 173.033 266.203,175.804 266.122,175.957 265.723 C 176.059 265.458,176.114 262.917,176.081 260.076 L 176.021 254.909 164.309 254.909 C 156.912 254.909,152.719 254.787,152.928 254.579 C 153.301 254.206,153.401 210.858,153.029 210.487 C 152.904 210.361,152.568 210.451,152.284 210.687 C 151.846 211.051,151.805 210.998,152.015 210.336 C 152.202 209.747,152.125 209.557,151.697 209.557 C 151.386 209.557,151.229 209.401,151.347 209.209 C 151.465 209.018,151.409 208.862,151.222 208.862 C 151.036 208.862,150.804 209.057,150.708 209.296 C 150.606 209.548,150.521 209.467,150.505 209.102 C 150.490 208.751,150.315 208.574,150.108 208.702 C 149.564 209.038,148.403 207.850,148.649 207.208 C 148.786 206.850,148.720 206.748,148.456 206.912 C 148.201 207.069,148.123 206.979,148.243 206.666 C 148.348 206.392,148.174 206.072,147.853 205.949 C 147.423 205.784,147.328 205.869,147.484 206.277 C 147.633 206.664,147.392 206.588,146.673 206.020 C 146.110 205.576,145.723 204.995,145.813 204.729 C 145.948 204.327,145.884 204.322,145.427 204.701 C 144.970 205.081,144.896 205.074,144.985 204.664 C 145.044 204.387,144.875 204.217,144.598 204.277 C 144.172 204.369,144.172 204.300,144.598 203.776 C 144.913 203.388,144.934 203.262,144.657 203.429 C 144.364 203.605,144.222 203.450,144.222 202.954 C 144.222 202.549,144.079 202.307,143.903 202.415 C 143.727 202.524,143.347 202.377,143.059 202.088 C 142.770 201.800,142.445 201.564,142.336 201.564 C 142.227 201.564,142.137 215.722,142.137 233.027 M257.672 210.159 C 257.787 210.458,257.564 210.420,256.983 210.039 C 256.511 209.730,256.125 209.337,256.125 209.166 C 256.125 208.747,257.458 209.602,257.672 210.159 M166.811 210.666 C 166.811 211.122,166.022 210.836,165.848 210.317 C 165.764 210.063,165.923 209.985,166.261 210.115 C 166.564 210.231,166.811 210.479,166.811 210.666 M185.140 263.674 C 185.218 297.780,185.311 301.188,186.124 299.872 C 186.308 299.576,186.207 299.517,185.790 299.676 C 185.436 299.812,185.280 299.766,185.406 299.562 C 185.523 299.373,185.793 299.218,186.005 299.218 C 186.218 299.218,186.714 298.944,187.108 298.610 C 187.791 298.031,187.802 298.031,187.354 298.610 C 187.004 299.061,186.992 299.218,187.305 299.218 C 187.538 299.218,187.813 298.892,187.917 298.494 C 188.061 297.943,188.177 297.880,188.401 298.233 C 188.637 298.605,188.697 298.594,188.705 298.175 C 188.715 297.712,188.756 297.712,189.074 298.175 C 189.371 298.609,189.422 298.580,189.376 298.002 C 189.283 296.844,189.394 296.585,189.748 297.133 C 190.047 297.596,190.086 297.596,190.096 297.133 C 190.105 296.670,190.144 296.670,190.443 297.133 C 190.729 297.575,190.781 297.559,190.785 297.026 C 190.789 296.635,190.944 296.492,191.197 296.648 C 191.466 296.814,191.533 296.714,191.395 296.354 C 191.238 295.947,191.383 295.831,191.965 295.895 C 193.059 296.015,194.266 295.509,194.266 294.930 C 194.266 294.663,194.540 294.448,194.874 294.454 C 195.801 294.471,197.764 293.628,197.561 293.300 C 197.463 293.141,197.544 292.911,197.741 292.789 C 197.938 292.667,197.995 292.397,197.867 292.190 C 197.727 291.963,197.796 291.913,198.041 292.064 C 198.264 292.202,198.348 292.477,198.226 292.674 C 198.091 292.892,198.292 292.878,198.742 292.638 C 199.535 292.213,199.735 291.573,199.073 291.573 C 198.850 291.573,198.768 291.472,198.891 291.349 C 199.014 291.226,199.353 291.324,199.644 291.566 C 200.035 291.890,200.174 291.898,200.174 291.595 C 200.174 291.369,200.337 291.285,200.537 291.408 C 200.736 291.531,201.134 291.437,201.422 291.199 C 201.841 290.851,201.855 290.708,201.493 290.479 C 201.195 290.290,201.373 290.191,202.019 290.188 C 202.667 290.184,202.912 290.048,202.747 289.781 C 202.593 289.532,202.652 289.474,202.903 289.630 C 203.125 289.767,203.563 289.623,203.876 289.310 C 204.292 288.894,204.513 288.851,204.699 289.151 C 205.062 289.739,205.439 289.008,205.181 288.216 C 205.008 287.682,205.037 287.663,205.354 288.097 C 205.692 288.561,205.772 288.561,206.076 288.097 C 206.305 287.749,206.420 287.720,206.424 288.010 C 206.427 288.249,206.604 288.445,206.817 288.445 C 207.036 288.445,207.138 288.092,207.050 287.634 C 206.953 287.125,207.061 286.823,207.342 286.823 C 207.588 286.823,207.708 286.953,207.610 287.113 C 207.511 287.272,207.596 287.402,207.799 287.402 C 208.001 287.402,208.167 287.229,208.167 287.018 C 208.167 286.806,208.386 286.717,208.654 286.820 C 208.942 286.930,209.211 286.737,209.313 286.349 C 209.431 285.897,209.717 285.735,210.225 285.833 C 210.632 285.912,210.884 285.844,210.785 285.683 C 210.685 285.522,210.847 285.296,211.145 285.182 C 211.448 285.066,211.576 284.797,211.437 284.571 C 211.280 284.318,211.339 284.261,211.594 284.419 C 211.818 284.557,211.911 284.816,211.801 284.994 C 211.691 285.172,211.767 285.317,211.969 285.317 C 212.171 285.317,212.337 285.152,212.337 284.949 C 212.337 284.747,212.476 284.667,212.645 284.771 C 212.815 284.876,213.043 284.618,213.153 284.199 C 213.262 283.779,213.460 283.544,213.592 283.676 C 213.724 283.808,214.160 283.566,214.561 283.139 C 215.074 282.594,215.646 282.381,216.483 282.422 C 217.145 282.455,217.485 282.364,217.248 282.218 C 216.930 282.021,216.975 281.830,217.426 281.464 C 217.806 281.156,217.935 281.133,217.772 281.403 C 217.596 281.697,217.688 281.767,218.062 281.624 C 218.435 281.481,218.502 281.283,218.273 281.007 C 218.030 280.714,218.197 280.605,218.873 280.613 C 219.540 280.622,219.796 280.458,219.765 280.041 C 219.729 279.569,219.837 279.530,220.328 279.836 C 220.809 280.137,221.107 280.055,221.762 279.443 C 222.463 278.789,222.485 278.711,221.905 278.933 C 221.295 279.166,221.276 279.135,221.732 278.642 C 222.012 278.338,222.301 278.146,222.374 278.216 C 222.447 278.285,222.818 278.176,223.198 277.972 C 223.745 277.679,223.839 277.700,223.648 278.071 C 223.515 278.329,223.637 278.258,223.918 277.914 C 224.232 277.530,224.481 277.439,224.561 277.679 C 224.637 277.908,225.092 277.699,225.656 277.176 C 226.187 276.684,226.839 276.281,227.104 276.281 C 227.370 276.281,227.700 276.099,227.838 275.875 C 228.014 275.591,227.889 275.545,227.425 275.722 C 226.903 275.920,226.850 275.884,227.179 275.552 C 227.484 275.245,227.723 275.233,228.054 275.508 C 228.402 275.796,228.834 275.560,229.871 274.516 C 230.843 273.538,231.309 273.271,231.501 273.582 C 231.712 273.924,231.865 273.914,232.218 273.534 C 232.588 273.137,232.581 273.101,232.179 273.330 C 231.846 273.520,231.772 273.477,231.948 273.193 C 232.089 272.965,232.492 272.869,232.844 272.981 C 233.196 273.093,233.613 272.982,233.771 272.735 C 234.143 272.151,235.815 270.767,235.505 271.300 C 235.326 271.606,235.519 271.611,236.292 271.319 C 236.855 271.106,237.238 270.807,237.143 270.653 C 237.048 270.499,237.209 270.374,237.500 270.374 C 237.791 270.374,238.199 270.056,238.407 269.669 C 238.614 269.281,238.914 269.045,239.074 269.143 C 239.699 269.530,241.510 268.546,241.934 267.590 C 242.175 267.046,242.497 266.679,242.651 266.774 C 242.805 266.869,242.833 267.104,242.715 267.296 C 242.596 267.488,242.818 267.445,243.208 267.202 C 243.598 266.958,243.859 266.666,243.788 266.552 C 243.718 266.437,243.804 266.117,243.979 265.839 C 244.244 265.421,244.300 265.438,244.304 265.943 C 244.312 266.806,244.968 266.696,245.341 265.769 C 245.514 265.339,245.665 265.168,245.677 265.389 C 245.703 265.853,247.089 265.589,247.089 265.120 C 247.089 264.951,247.402 264.500,247.785 264.118 C 248.167 263.736,248.480 263.579,248.480 263.771 C 248.480 264.250,249.425 264.209,249.729 263.717 C 249.882 263.470,249.825 263.410,249.580 263.561 C 249.330 263.716,249.253 263.622,249.373 263.310 C 249.478 263.036,249.795 262.832,250.077 262.857 C 250.523 262.896,250.587 260.667,250.568 245.746 C 250.551 232.577,250.647 228.458,250.978 228.022 C 251.216 227.710,251.274 227.570,251.107 227.712 C 250.939 227.854,250.611 227.811,250.377 227.616 C 250.076 227.367,249.891 227.419,249.747 227.793 C 249.636 228.085,249.372 228.323,249.161 228.323 C 248.481 228.323,247.728 229.280,248.222 229.515 C 248.459 229.629,248.326 229.662,247.926 229.590 C 247.472 229.508,247.034 229.722,246.762 230.159 C 246.406 230.728,246.267 230.767,246.017 230.373 C 245.773 229.987,245.709 230.017,245.705 230.516 C 245.702 230.862,245.543 231.048,245.352 230.930 C 245.161 230.811,245.004 230.858,245.004 231.033 C 245.004 231.207,244.496 231.503,243.875 231.690 C 243.254 231.877,242.785 232.212,242.832 232.435 C 242.880 232.658,242.754 232.841,242.551 232.841 C 242.349 232.841,242.301 233.036,242.444 233.275 C 242.649 233.616,242.594 233.620,242.192 233.295 C 241.711 232.906,240.738 233.164,240.804 233.662 C 240.896 234.348,240.788 234.569,240.400 234.492 C 240.062 234.424,239.926 236.853,239.791 245.352 C 239.669 253.078,239.493 256.503,239.194 256.994 C 238.960 257.378,238.765 257.485,238.759 257.234 C 238.754 256.984,238.590 256.877,238.396 256.997 C 238.201 257.117,238.149 257.388,238.279 257.598 C 238.431 257.844,238.309 257.902,237.937 257.759 C 237.563 257.615,237.359 257.713,237.359 258.036 C 237.359 258.336,237.152 258.457,236.840 258.337 C 236.546 258.224,236.231 258.376,236.111 258.689 C 235.939 259.138,235.760 259.166,235.152 258.842 C 234.454 258.470,234.439 258.486,234.926 259.089 C 235.213 259.444,235.266 259.625,235.044 259.492 C 234.429 259.123,233.345 259.613,233.941 259.991 C 234.259 260.193,234.105 260.286,233.449 260.290 C 232.924 260.293,232.533 260.471,232.580 260.686 C 232.628 260.901,232.472 261.149,232.233 261.237 C 231.954 261.339,231.874 261.198,232.009 260.846 C 232.272 260.161,231.909 260.135,231.252 260.792 C 230.696 261.348,230.582 261.834,231.079 261.527 C 231.257 261.417,231.496 261.477,231.610 261.662 C 231.724 261.846,231.513 261.938,231.140 261.866 C 230.159 261.677,229.096 262.024,228.873 262.607 C 228.744 262.942,228.823 263.025,229.109 262.853 C 229.386 262.687,229.367 262.807,229.055 263.191 C 228.598 263.755,228.532 263.754,227.867 263.171 C 227.191 262.579,227.172 262.580,227.397 263.194 C 227.721 264.080,227.337 264.597,226.728 264.092 C 226.376 263.800,226.238 263.795,226.238 264.076 C 226.238 264.290,225.994 264.466,225.696 264.466 C 225.398 264.466,225.251 264.622,225.369 264.813 C 225.487 265.004,225.340 265.161,225.042 265.161 C 224.744 265.161,224.500 265.405,224.500 265.703 C 224.500 266.001,224.341 266.146,224.147 266.026 C 223.953 265.906,223.897 265.642,224.022 265.439 C 224.154 265.226,224.046 265.142,223.767 265.240 C 223.501 265.333,223.302 265.646,223.325 265.935 C 223.353 266.299,223.149 266.405,222.662 266.278 C 222.184 266.153,222.039 266.224,222.210 266.499 C 222.467 266.915,221.085 267.649,220.591 267.358 C 220.447 267.274,220.330 267.380,220.330 267.593 C 220.330 267.807,220.185 267.892,220.007 267.782 C 219.829 267.672,219.583 267.744,219.461 267.941 C 219.339 268.138,219.105 268.216,218.940 268.115 C 218.775 268.013,218.542 268.089,218.422 268.283 C 218.302 268.477,218.409 268.638,218.659 268.641 C 218.994 268.645,218.979 268.732,218.602 268.970 C 218.264 269.184,218.000 269.153,217.825 268.878 C 217.628 268.567,217.559 268.578,217.555 268.921 C 217.552 269.174,217.315 269.615,217.029 269.902 C 216.742 270.189,216.507 270.282,216.507 270.109 C 216.507 269.614,215.097 269.846,214.747 270.398 C 214.308 271.093,214.346 271.504,214.823 271.209 C 215.089 271.045,215.130 271.115,214.944 271.415 C 214.718 271.781,214.589 271.768,214.282 271.352 C 213.950 270.902,213.811 270.922,213.206 271.504 C 212.086 272.580,210.984 273.102,211.619 272.255 C 211.893 271.889,211.717 271.981,211.229 272.459 C 210.741 272.937,210.399 273.428,210.468 273.552 C 210.653 273.877,209.661 274.196,208.465 274.196 C 207.896 274.196,207.517 274.336,207.623 274.507 C 207.728 274.678,207.420 274.916,206.938 275.037 C 206.456 275.158,205.724 275.645,205.311 276.120 C 204.797 276.711,204.350 276.915,203.888 276.768 C 203.399 276.613,203.289 276.676,203.489 276.998 C 203.690 277.324,203.589 277.375,203.108 277.191 C 202.748 277.053,202.553 277.039,202.675 277.161 C 202.900 277.386,201.581 278.888,201.158 278.888 C 201.031 278.888,200.809 279.005,200.666 279.149 C 200.523 279.292,200.236 279.407,200.029 279.404 C 199.822 279.401,199.887 279.247,200.174 279.062 C 200.619 278.774,200.607 278.724,200.087 278.719 C 199.752 278.717,199.479 278.871,199.479 279.062 C 199.479 279.253,199.244 279.409,198.957 279.409 C 198.671 279.409,198.417 279.566,198.393 279.757 C 198.369 279.948,198.330 280.253,198.306 280.434 C 198.202 281.221,197.475 281.563,196.740 281.169 C 196.013 280.780,196.012 280.751,195.921 255.975 C 195.871 242.332,195.947 231.242,196.090 231.331 C 196.234 231.419,196.351 231.326,196.351 231.124 C 196.351 230.921,196.047 230.756,195.676 230.756 C 195.305 230.756,194.897 230.586,194.768 230.378 C 194.640 230.170,194.240 230.077,193.879 230.172 C 193.518 230.266,193.223 230.239,193.223 230.112 C 193.223 229.474,191.773 228.983,191.218 229.433 C 190.770 229.796,190.711 229.797,190.927 229.439 C 191.131 229.099,190.977 229.045,190.295 229.217 C 189.595 229.392,189.436 229.330,189.585 228.941 C 189.691 228.665,189.576 228.422,189.329 228.401 C 188.609 228.341,187.864 228.146,187.489 227.920 C 187.298 227.804,186.672 227.609,186.099 227.487 L 185.056 227.264 185.140 263.674 M187.460 228.236 C 187.604 228.380,187.890 228.497,188.097 228.497 C 188.304 228.497,188.538 228.732,188.616 229.018 C 188.743 229.482,188.717 229.482,188.390 229.018 C 188.187 228.732,188.019 228.633,188.016 228.800 C 188.013 228.967,187.801 228.929,187.544 228.716 C 187.288 228.503,186.975 228.432,186.849 228.558 C 186.723 228.684,186.620 228.604,186.620 228.381 C 186.620 227.922,187.069 227.845,187.460 228.236 M220.961 238.215 C 220.901 238.266,220.460 238.505,219.983 238.747 L 219.114 239.186 219.809 238.491 C 220.191 238.108,220.632 237.869,220.788 237.959 C 220.944 238.050,221.022 238.165,220.961 238.215 " stroke="none" fill="#f4f4fc" fill-rule="evenodd"></path><path id="path1" d="M184.967 113.553 C 184.921 152.020,185.000 183.493,185.143 183.493 C 185.379 183.493,185.378 135.905,185.141 68.810 C 185.092 54.952,185.014 75.087,184.967 113.553 M191.138 46.552 C 191.138 46.774,191.295 46.860,191.486 46.742 C 191.677 46.624,191.833 46.667,191.833 46.837 C 191.833 47.008,192.068 47.147,192.354 47.147 C 192.641 47.147,192.876 47.017,192.876 46.858 C 192.876 46.699,192.732 46.568,192.557 46.568 C 192.381 46.568,191.990 46.473,191.688 46.357 C 191.380 46.239,191.138 46.325,191.138 46.552 M193.446 47.868 C 193.635 48.590,194.961 48.601,194.961 47.881 C 194.961 47.691,194.745 47.619,194.482 47.720 C 194.219 47.821,193.836 47.737,193.633 47.534 C 193.370 47.271,193.316 47.369,193.446 47.868 M195.325 48.480 C 195.316 48.996,195.937 49.879,196.155 49.660 C 196.259 49.556,196.116 49.170,195.837 48.802 C 195.559 48.433,195.328 48.288,195.325 48.480 M199.916 51.338 C 199.947 51.763,200.197 52.196,200.471 52.301 C 201.224 52.590,201.234 52.378,200.514 51.428 C 199.870 50.578,199.861 50.577,199.916 51.338 M205.124 54.445 C 204.884 54.541,204.771 54.757,204.874 54.923 C 205.100 55.288,206.082 54.963,206.082 54.524 C 206.082 54.189,205.812 54.167,205.124 54.445 M214.338 59.310 C 214.578 59.407,214.706 59.597,214.622 59.732 C 214.539 59.867,214.791 60.001,215.182 60.031 C 215.870 60.083,215.872 60.068,215.245 59.593 C 214.888 59.322,214.440 59.109,214.248 59.118 C 214.057 59.127,214.097 59.213,214.338 59.310 M196.003 124.391 L 196.177 187.489 196.265 124.654 C 196.319 86.118,196.478 61.896,196.675 62.019 C 196.853 62.128,197.085 62.077,197.192 61.905 C 197.298 61.732,197.035 61.524,196.608 61.442 L 195.830 61.294 196.003 124.391 M221.720 63.956 C 221.720 64.430,222.238 64.616,222.722 64.317 C 223.048 64.116,222.973 63.990,222.445 63.851 C 222.046 63.747,221.720 63.794,221.720 63.956 M223.319 64.848 C 223.201 65.156,223.265 65.280,223.477 65.149 C 223.674 65.027,224.064 65.116,224.342 65.347 C 224.620 65.578,224.848 65.629,224.848 65.461 C 224.848 64.814,223.534 64.287,223.319 64.848 M202.386 65.510 C 203.653 66.171,203.975 66.175,203.107 65.519 C 202.736 65.239,202.198 65.005,201.911 65.000 C 201.625 64.995,201.838 65.225,202.386 65.510 M204.344 66.377 C 204.057 66.562,203.901 66.728,203.997 66.745 C 204.092 66.762,204.543 66.845,204.999 66.929 C 205.706 67.060,205.763 67.005,205.391 66.556 C 205.151 66.266,204.934 66.032,204.910 66.035 C 204.885 66.038,204.631 66.192,204.344 66.377 M227.788 67.443 C 227.662 67.647,227.652 67.907,227.767 68.022 C 227.882 68.137,227.976 68.039,227.976 67.805 C 227.976 67.570,228.135 67.477,228.329 67.597 C 228.523 67.717,228.577 67.985,228.449 68.192 C 228.313 68.412,228.377 68.470,228.602 68.331 C 229.018 68.074,228.783 67.072,228.307 67.072 C 228.147 67.072,227.914 67.239,227.788 67.443 M207.193 68.299 C 207.539 68.645,208.882 68.776,208.677 68.444 C 208.565 68.263,208.144 68.115,207.741 68.115 C 207.338 68.115,207.091 68.198,207.193 68.299 M230.408 68.711 C 230.408 69.169,231.179 69.852,231.694 69.852 C 231.943 69.852,232.146 69.701,232.146 69.516 C 232.146 69.331,231.905 69.272,231.610 69.385 C 231.285 69.509,231.115 69.420,231.176 69.156 C 231.232 68.918,231.082 68.651,230.843 68.564 C 230.604 68.476,230.408 68.542,230.408 68.711 M212.406 70.834 C 212.473 71.087,212.663 71.269,212.828 71.239 C 212.993 71.208,213.275 71.392,213.454 71.647 C 213.721 72.027,213.758 72.028,213.658 71.651 C 213.591 71.397,213.401 71.215,213.236 71.246 C 213.071 71.277,212.789 71.093,212.610 70.838 C 212.343 70.458,212.306 70.457,212.406 70.834 M240.994 75.088 C 240.868 75.292,240.858 75.553,240.973 75.667 C 241.088 75.782,241.182 75.694,241.182 75.471 C 241.182 75.248,241.347 75.065,241.550 75.065 C 241.752 75.065,241.806 75.246,241.670 75.466 C 241.515 75.717,241.574 75.773,241.829 75.616 C 242.259 75.350,242.048 74.718,241.529 74.718 C 241.361 74.718,241.120 74.884,240.994 75.088 M243.569 76.227 C 243.782 76.483,243.840 76.835,243.698 77.009 C 243.556 77.182,243.582 77.208,243.756 77.066 C 243.930 76.925,244.288 76.988,244.553 77.208 C 244.891 77.489,245.143 77.498,245.402 77.240 C 245.660 76.981,245.553 76.803,245.039 76.640 C 244.638 76.513,244.309 76.263,244.309 76.084 C 244.309 75.906,244.056 75.760,243.745 75.760 C 243.313 75.760,243.272 75.869,243.569 76.227 M176.126 82.189 L 176.230 87.228 164.744 87.228 C 154.766 87.228,153.258 87.297,153.258 87.750 C 153.258 88.203,154.757 88.271,164.668 88.271 L 176.077 88.271 176.495 87.489 C 177.009 86.527,176.897 77.441,176.368 77.265 C 176.144 77.190,176.058 78.938,176.126 82.189 M228.372 79.900 C 228.019 80.118,228.052 80.233,228.518 80.412 C 229.241 80.689,229.414 80.570,229.077 80.026 C 228.932 79.791,228.635 79.738,228.372 79.900 M250.092 80.452 C 249.982 80.738,250.043 80.973,250.228 80.973 C 250.778 80.973,250.681 195.209,250.130 195.408 C 249.891 195.494,249.416 195.321,249.073 195.022 C 248.510 194.531,248.470 194.531,248.658 195.020 C 248.904 195.661,250.208 196.309,250.825 196.096 C 251.171 195.976,251.260 184.142,251.260 138.488 C 251.260 92.848,251.170 80.995,250.825 80.855 C 250.498 80.722,250.520 80.587,250.912 80.310 C 251.367 79.988,251.361 79.940,250.863 79.936 C 250.549 79.933,250.202 80.165,250.092 80.452 M233.013 82.366 C 232.894 82.558,233.041 82.961,233.340 83.259 C 233.639 83.558,233.884 83.645,233.884 83.451 C 233.884 83.258,233.710 82.992,233.499 82.862 C 233.231 82.696,233.257 82.533,233.586 82.325 C 233.901 82.125,233.920 82.025,233.643 82.021 C 233.416 82.018,233.132 82.173,233.013 82.366 M176.100 127.911 C 176.195 128.277,176.412 128.490,176.582 128.386 C 177.039 128.103,176.955 127.641,176.408 127.431 C 176.070 127.301,175.978 127.445,176.100 127.911 M176.102 129.656 C 176.246 130.207,176.362 130.269,176.585 129.916 C 177.013 129.241,176.955 128.931,176.401 128.931 C 176.077 128.931,175.976 129.175,176.102 129.656 M165.190 132.639 C 165.318 132.767,165.164 133.158,164.847 133.508 C 164.172 134.254,164.544 134.376,165.272 133.648 C 165.873 133.048,165.920 132.407,165.363 132.407 C 165.140 132.407,165.063 132.511,165.190 132.639 M150.825 133.776 C 150.825 133.956,151.006 134.215,151.227 134.351 C 151.494 134.516,151.533 134.445,151.343 134.139 C 151.135 133.802,151.219 133.740,151.655 133.907 C 152.009 134.043,152.165 133.997,152.039 133.793 C 151.769 133.355,150.825 133.343,150.825 133.776 M149.406 135.396 C 148.866 136.047,148.679 136.924,149.081 136.924 C 149.359 136.924,149.805 136.104,149.978 135.274 C 150.098 134.697,149.962 134.726,149.406 135.396 M147.096 137.996 C 146.952 138.547,146.836 138.610,146.612 138.257 C 146.370 137.875,146.317 137.878,146.313 138.274 C 146.310 138.538,145.971 139.046,145.559 139.403 C 144.960 139.923,144.923 140.052,145.372 140.052 C 145.940 140.052,147.350 138.767,147.350 138.249 C 147.350 138.094,147.585 137.967,147.871 137.967 C 148.158 137.967,148.393 137.811,148.393 137.619 C 148.393 136.955,147.284 137.277,147.096 137.996 M157.290 138.522 C 157.190 138.781,157.381 138.866,157.807 138.755 C 158.741 138.510,158.987 137.998,158.140 138.061 C 157.759 138.090,157.376 138.297,157.290 138.522 M154.996 140.921 C 154.547 141.399,154.262 141.790,154.363 141.790 C 154.464 141.790,154.968 141.399,155.484 140.921 C 156.000 140.443,156.284 140.052,156.117 140.052 C 155.949 140.052,155.445 140.443,154.996 140.921 M150.738 145.342 C 150.404 145.682,150.296 145.960,150.498 145.960 C 150.701 145.960,150.755 146.141,150.618 146.361 C 150.464 146.612,150.523 146.668,150.777 146.511 C 151.001 146.373,151.078 146.087,150.948 145.877 C 150.797 145.632,150.916 145.573,151.279 145.712 C 151.979 145.981,152.285 145.567,151.745 145.081 C 151.466 144.831,151.164 144.909,150.738 145.342 M162.989 146.481 C 162.989 146.768,163.145 147.003,163.336 147.003 C 163.527 147.003,163.684 146.768,163.684 146.481 C 163.684 146.195,163.527 145.960,163.336 145.960 C 163.145 145.960,162.989 146.195,162.989 146.481 M147.364 149.870 C 146.684 150.931,146.639 151.405,147.221 151.405 C 147.546 151.405,147.636 151.179,147.492 150.724 C 147.373 150.350,147.410 150.116,147.574 150.205 C 147.737 150.295,148.145 150.080,148.480 149.728 C 149.059 149.118,149.059 149.088,148.476 149.088 C 148.140 149.088,147.639 149.440,147.364 149.870 M160.182 151.491 C 160.167 151.603,160.103 151.968,160.039 152.302 C 159.870 153.183,160.381 153.049,160.814 152.100 C 161.105 151.460,161.080 151.289,160.696 151.289 C 160.428 151.289,160.197 151.380,160.182 151.491 M159.513 154.495 C 159.513 155.079,159.376 155.299,159.112 155.136 C 158.875 154.990,158.805 155.040,158.941 155.260 C 159.067 155.464,158.974 155.711,158.734 155.807 C 158.405 155.940,158.402 155.990,158.721 156.011 C 158.954 156.026,159.060 156.257,158.958 156.524 C 158.855 156.792,158.962 157.129,159.196 157.273 C 159.468 157.441,159.531 157.391,159.373 157.134 C 159.237 156.914,159.251 156.733,159.406 156.732 C 159.561 156.731,159.728 156.027,159.777 155.168 C 159.827 154.309,159.788 153.606,159.691 153.606 C 159.593 153.606,159.513 154.006,159.513 154.495 M143.096 157.247 C 142.990 157.803,143.080 158.007,143.381 157.891 C 144.033 157.641,144.248 156.817,143.715 156.613 C 143.430 156.504,143.192 156.748,143.096 157.247 M158.599 159.403 C 158.726 159.628,158.671 159.911,158.477 160.031 C 158.282 160.151,158.123 160.408,158.123 160.601 C 158.123 160.795,158.379 160.697,158.692 160.385 C 159.152 159.925,159.175 159.738,158.815 159.404 C 158.475 159.090,158.424 159.090,158.599 159.403 M141.775 160.608 C 141.985 160.864,141.970 161.275,141.733 161.739 C 141.377 162.437,141.388 162.442,141.997 161.859 C 142.597 161.286,142.599 161.221,142.039 160.729 C 141.712 160.441,141.593 160.387,141.775 160.608 M157.577 162.970 C 157.577 163.299,157.778 163.568,158.024 163.568 C 158.270 163.568,158.471 163.376,158.471 163.142 C 158.471 162.907,158.270 162.638,158.024 162.544 C 157.767 162.445,157.577 162.626,157.577 162.970 M140.542 166.760 C 140.681 166.986,140.552 167.256,140.248 167.372 C 139.949 167.487,139.705 167.950,139.705 168.402 C 139.705 169.031,139.842 169.170,140.295 168.996 C 140.665 168.854,140.730 168.717,140.469 168.630 C 140.240 168.554,140.052 168.339,140.052 168.152 C 140.052 167.966,140.191 167.899,140.360 168.003 C 140.530 168.108,140.749 167.883,140.849 167.503 C 140.948 167.123,140.864 166.710,140.661 166.584 C 140.443 166.450,140.395 166.522,140.542 166.760 M158.384 169.822 C 158.623 169.918,158.831 170.414,158.846 170.924 C 158.862 171.476,158.954 171.640,159.072 171.329 C 159.181 171.043,159.423 170.708,159.610 170.586 C 160.149 170.235,159.548 169.589,158.711 169.619 C 158.292 169.634,158.145 169.725,158.384 169.822 M160.672 174.299 C 160.672 174.577,160.748 174.729,160.840 174.636 C 160.933 174.544,161.228 174.739,161.497 175.071 C 161.937 175.614,161.948 175.599,161.616 174.911 C 161.151 173.948,160.672 173.638,160.672 174.299 M210.245 178.793 C 210.487 179.084,210.540 179.322,210.364 179.322 C 210.188 179.322,210.043 179.687,210.043 180.133 C 210.043 180.579,210.247 180.944,210.495 180.944 C 211.182 180.944,211.077 178.751,210.377 178.483 C 209.900 178.300,209.878 178.351,210.245 178.793 M209.910 182.557 C 209.907 183.353,210.043 183.795,210.252 183.666 C 210.691 183.395,210.691 182.435,210.252 181.755 C 210.002 181.368,209.914 181.575,209.910 182.557 M167.970 183.319 C 167.970 183.606,168.152 183.840,168.375 183.840 C 168.598 183.840,168.781 183.606,168.781 183.319 C 168.781 183.032,168.598 182.798,168.375 182.798 C 168.152 182.798,167.970 183.032,167.970 183.319 M169.951 184.197 C 169.931 185.094,171.220 186.016,171.494 185.301 C 171.615 184.987,171.608 184.836,171.478 184.965 C 171.349 185.095,170.955 184.855,170.603 184.434 C 170.127 183.863,169.959 183.803,169.951 184.197 M141.458 185.838 C 141.449 186.268,141.588 186.620,141.766 186.620 C 141.945 186.620,142.193 186.945,142.319 187.342 C 142.445 187.738,142.623 187.988,142.715 187.896 C 142.807 187.804,142.565 187.127,142.178 186.392 C 141.602 185.301,141.470 185.200,141.458 185.838 M173.273 186.220 C 173.031 186.613,174.414 188.078,174.801 187.839 C 174.968 187.736,175.202 187.811,175.322 188.005 C 175.681 188.585,176.545 188.422,176.313 187.818 C 176.192 187.501,175.784 187.319,175.330 187.379 C 174.472 187.491,173.313 186.718,173.613 186.233 C 173.717 186.064,173.725 185.925,173.629 185.925 C 173.534 185.925,173.373 186.058,173.273 186.220 M222.415 186.252 C 222.415 186.737,223.054 187.044,223.495 186.771 C 223.763 186.605,223.737 186.443,223.408 186.235 C 222.788 185.842,222.415 185.848,222.415 186.252 M224.641 187.717 C 224.487 187.965,224.546 188.023,224.794 187.870 C 225.032 187.723,225.195 187.843,225.195 188.164 C 225.195 188.462,225.313 188.717,225.456 188.732 C 225.599 188.747,225.990 188.811,226.325 188.875 C 226.659 188.939,226.933 188.832,226.933 188.638 C 226.933 188.443,226.684 188.379,226.380 188.496 C 226.010 188.638,225.766 188.476,225.644 188.012 C 225.441 187.234,225.016 187.109,224.641 187.717 M210.410 188.480 C 210.246 188.887,210.325 189.231,210.626 189.417 C 211.278 189.820,211.364 189.644,210.989 188.669 C 210.698 187.911,210.646 187.894,210.410 188.480 M227.976 189.748 C 227.597 189.993,227.579 190.086,227.909 190.090 C 228.160 190.093,228.274 190.241,228.164 190.419 C 228.054 190.597,228.122 190.840,228.315 190.959 C 228.522 191.087,228.636 190.812,228.593 190.288 C 228.552 189.800,228.514 189.403,228.508 189.406 C 228.502 189.409,228.262 189.563,227.976 189.748 M180.109 190.606 C 179.997 190.803,180.034 190.848,180.190 190.707 C 180.347 190.565,180.715 190.643,181.008 190.881 C 181.366 191.170,181.461 191.179,181.298 190.907 C 181.165 190.685,181.252 190.427,181.492 190.334 C 181.732 190.242,181.565 190.185,181.120 190.207 C 180.676 190.229,180.221 190.409,180.109 190.606 M241.877 190.323 C 241.877 190.961,243.123 191.834,243.989 191.803 C 244.750 191.776,244.731 191.744,243.788 191.463 C 243.215 191.292,242.551 190.884,242.311 190.557 C 242.072 190.230,241.877 190.125,241.877 190.323 M229.366 191.196 C 229.366 191.419,229.457 191.510,229.569 191.398 C 229.896 191.071,231.090 192.268,230.845 192.677 C 230.723 192.882,230.904 192.821,231.249 192.541 C 231.726 192.153,231.764 191.995,231.408 191.877 C 231.152 191.791,230.733 191.512,230.477 191.256 C 229.903 190.683,229.366 190.654,229.366 191.196 M185.699 192.312 C 186.099 192.633,186.238 193.003,186.067 193.287 C 185.859 193.633,185.937 193.627,186.388 193.261 C 186.716 192.994,186.942 192.742,186.889 192.700 C 186.837 192.657,186.403 192.436,185.925 192.209 C 185.128 191.829,185.110 191.838,185.699 192.312 M245.762 192.767 C 245.430 192.899,245.508 193.094,246.045 193.470 C 246.893 194.064,247.204 193.927,246.887 193.099 C 246.658 192.503,246.521 192.463,245.762 192.767 M234.041 193.945 C 233.745 194.424,234.044 194.705,234.691 194.557 C 235.121 194.459,235.128 194.369,234.737 194.009 C 234.417 193.715,234.196 193.695,234.041 193.945 M247.334 194.034 C 247.223 194.321,247.358 194.642,247.633 194.747 C 248.193 194.962,248.267 194.669,247.828 193.976 C 247.589 193.599,247.496 193.610,247.334 194.034 M210.627 194.845 C 210.645 195.274,210.716 195.327,210.843 195.008 C 211.002 194.609,211.083 194.609,211.363 195.008 C 211.637 195.400,211.672 195.396,211.560 194.983 C 211.356 194.228,210.596 194.116,210.627 194.845 M236.751 195.897 C 237.086 196.273,237.243 196.720,237.099 196.889 C 236.955 197.058,237.087 197.008,237.391 196.777 C 237.695 196.546,238.047 196.460,238.173 196.586 C 238.298 196.711,238.401 196.714,238.401 196.592 C 238.401 196.469,237.893 196.109,237.272 195.791 C 236.156 195.220,236.150 195.221,236.751 195.897 M147.434 195.951 C 147.156 196.123,147.243 196.334,147.712 196.627 C 148.270 196.976,148.393 196.962,148.393 196.548 C 148.393 195.905,147.953 195.631,147.434 195.951 M194.526 196.277 C 194.668 196.646,194.771 196.658,194.974 196.329 C 195.119 196.094,195.489 195.998,195.795 196.116 C 196.101 196.233,196.351 196.175,196.351 195.987 C 196.351 195.799,195.899 195.679,195.347 195.721 C 194.654 195.774,194.399 195.947,194.526 196.277 M210.822 197.914 C 210.514 198.716,210.544 199.131,210.910 199.131 C 211.365 199.131,211.620 198.267,211.311 197.767 C 211.112 197.445,210.987 197.483,210.822 197.914 M241.128 199.171 C 241.316 199.678,241.723 199.955,242.319 199.981 C 243.023 200.012,243.142 199.921,242.852 199.572 C 242.572 199.234,242.362 199.220,242.004 199.517 C 241.637 199.822,241.529 199.788,241.529 199.368 C 241.529 199.069,241.375 198.729,241.186 198.613 C 240.969 198.479,240.948 198.684,241.128 199.171 M204.908 199.409 C 204.814 199.562,205.117 199.687,205.583 199.687 C 206.048 199.687,206.429 199.562,206.429 199.409 C 206.429 199.256,206.126 199.131,205.755 199.131 C 205.384 199.131,205.003 199.256,204.908 199.409 M207.538 200.389 C 207.848 200.698,208.288 200.835,208.518 200.693 C 209.005 200.392,208.343 199.841,207.484 199.832 C 207.060 199.827,207.069 199.920,207.538 200.389 M210.599 200.153 C 210.599 200.356,210.365 200.521,210.078 200.521 C 209.791 200.521,209.557 200.652,209.557 200.811 C 209.557 200.970,209.791 201.100,210.078 201.100 C 210.365 201.100,210.599 200.961,210.599 200.790 C 210.599 200.620,210.756 200.577,210.947 200.695 C 211.138 200.813,211.295 200.753,211.295 200.562 C 211.295 200.371,211.138 200.118,210.947 200.000 C 210.756 199.882,210.599 199.951,210.599 200.153 M152.409 201.014 C 153.137 201.546,153.467 201.488,153.099 200.892 C 152.973 200.688,152.614 200.521,152.302 200.521 C 151.828 200.521,151.845 200.602,152.409 201.014 M142.137 201.089 C 142.137 201.437,143.620 202.630,143.813 202.437 C 144.028 202.222,142.835 200.869,142.431 200.869 C 142.269 200.869,142.137 200.968,142.137 201.089 M245.477 202.152 C 245.609 202.284,246.065 202.441,246.490 202.501 C 247.104 202.586,247.156 202.538,246.742 202.265 C 246.152 201.877,245.108 201.783,245.477 202.152 M154.898 202.708 C 154.777 203.022,154.838 203.378,155.034 203.499 C 155.536 203.809,155.642 203.583,155.360 202.806 C 155.147 202.217,155.091 202.205,154.898 202.708 M247.465 202.936 C 247.034 203.203,247.943 203.836,248.566 203.704 C 248.710 203.674,248.827 203.957,248.827 204.333 C 248.827 204.828,248.987 204.956,249.405 204.795 C 249.828 204.633,249.906 204.699,249.696 205.039 C 249.484 205.381,249.565 205.445,250.000 205.278 C 250.358 205.140,250.665 205.243,250.779 205.539 C 251.061 206.277,251.905 206.492,251.787 205.797 C 251.733 205.476,251.510 205.253,251.291 205.303 C 251.072 205.353,250.803 205.158,250.692 204.871 C 250.582 204.583,250.365 204.426,250.210 204.522 C 250.055 204.618,249.472 204.240,248.914 203.682 C 248.285 203.054,247.735 202.770,247.465 202.936 M144.316 203.625 C 144.344 203.994,144.530 204.268,144.729 204.233 C 144.928 204.199,145.043 204.392,144.985 204.664 C 144.896 205.074,144.970 205.081,145.427 204.701 C 145.884 204.322,145.948 204.327,145.813 204.729 C 145.723 204.995,146.110 205.576,146.673 206.020 C 148.111 207.156,147.686 206.019,146.014 204.257 C 144.622 202.791,144.243 202.650,144.316 203.625 M155.838 204.040 C 155.678 204.299,155.732 204.359,155.985 204.203 C 156.222 204.057,156.386 204.176,156.386 204.497 C 156.386 204.795,156.620 205.039,156.907 205.039 C 157.194 205.039,157.428 205.274,157.428 205.560 C 157.428 205.847,157.572 206.082,157.747 206.082 C 157.923 206.082,158.353 206.184,158.703 206.310 C 159.155 206.472,159.088 206.319,158.471 205.783 C 157.993 205.368,157.262 204.713,156.847 204.328 C 156.305 203.825,156.021 203.744,155.838 204.040 M159.983 206.608 C 160.292 206.834,160.430 207.146,160.290 207.301 C 160.150 207.456,160.223 207.475,160.454 207.343 C 161.014 207.021,160.669 206.198,159.974 206.198 C 159.474 206.198,159.475 206.237,159.983 206.608 M148.914 208.167 C 149.689 209.023,150.132 209.055,150.125 208.254 C 150.120 207.734,150.071 207.721,149.783 208.167 C 149.480 208.636,149.286 208.419,149.394 207.732 C 149.417 207.589,149.176 207.472,148.860 207.472 C 148.343 207.472,148.348 207.542,148.914 208.167 M256.125 209.166 C 256.125 209.337,256.511 209.730,256.983 210.039 C 257.564 210.420,257.787 210.458,257.672 210.159 C 257.458 209.602,256.125 208.747,256.125 209.166 M164.115 209.505 C 163.837 209.677,163.924 209.887,164.393 210.180 C 164.952 210.529,165.074 210.515,165.074 210.102 C 165.074 209.458,164.634 209.184,164.115 209.505 M165.848 210.317 C 166.022 210.836,166.811 211.122,166.811 210.666 C 166.811 210.479,166.564 210.231,166.261 210.115 C 165.923 209.985,165.764 210.063,165.848 210.317 M258.210 210.413 C 258.210 210.502,258.520 210.741,258.897 210.943 C 259.458 211.243,259.547 211.213,259.382 210.781 C 259.202 210.312,258.210 210.001,258.210 210.413 M258.210 213.032 C 258.210 213.223,258.445 213.380,258.732 213.380 C 259.018 213.380,259.253 213.223,259.253 213.032 C 259.253 212.841,259.018 212.685,258.732 212.685 C 258.445 212.685,258.210 212.841,258.210 213.032 M176.195 216.334 C 176.433 216.620,176.951 216.855,177.346 216.855 C 178.053 216.855,178.054 216.846,177.390 216.345 C 176.451 215.634,175.607 215.626,176.195 216.334 M252.476 216.855 C 252.594 217.046,252.525 217.202,252.323 217.202 C 252.120 217.202,251.955 217.360,251.955 217.553 C 251.955 217.765,252.221 217.737,252.627 217.483 C 253.292 217.068,253.282 216.507,252.609 216.507 C 252.418 216.507,252.358 216.664,252.476 216.855 M250.655 217.432 C 250.324 217.565,250.338 217.721,250.717 218.099 C 251.364 218.746,251.449 218.724,251.512 217.897 C 251.565 217.193,251.429 217.119,250.655 217.432 M193.571 222.483 C 193.571 222.678,193.795 222.751,194.070 222.646 C 194.344 222.540,194.645 222.606,194.739 222.791 C 194.832 222.976,194.873 222.942,194.829 222.715 C 194.731 222.206,193.571 221.993,193.571 222.483 M196.361 223.097 C 196.080 223.275,195.984 223.546,196.148 223.700 C 196.312 223.853,196.516 223.783,196.602 223.543 C 196.688 223.302,196.925 223.209,197.129 223.336 C 197.349 223.471,197.400 223.401,197.253 223.164 C 196.959 222.688,197.003 222.691,196.361 223.097 M200.261 224.036 C 199.540 224.326,199.772 224.850,200.608 224.821 C 201.038 224.805,201.194 224.714,200.954 224.617 C 200.713 224.520,200.605 224.298,200.713 224.123 C 200.927 223.778,200.907 223.775,200.261 224.036 M205.801 226.612 C 205.869 226.817,206.074 226.985,206.255 226.985 C 206.437 226.985,206.642 226.817,206.710 226.612 C 206.779 226.406,206.574 226.238,206.255 226.238 C 205.937 226.238,205.732 226.406,205.801 226.612 M207.612 227.335 C 207.441 227.611,207.599 227.676,208.112 227.542 C 208.618 227.410,208.862 227.505,208.862 227.834 C 208.862 228.103,209.024 228.323,209.222 228.323 C 209.466 228.323,209.462 228.099,209.209 227.628 C 208.798 226.859,207.997 226.713,207.612 227.335 M236.135 228.063 C 235.746 228.865,235.728 229.017,236.073 228.589 C 236.340 228.258,236.669 228.097,236.803 228.231 C 236.938 228.366,236.935 228.181,236.797 227.821 C 236.609 227.331,236.661 227.238,237.006 227.451 C 237.312 227.640,237.383 227.601,237.218 227.334 C 236.852 226.742,236.736 226.821,236.135 228.063 M186.620 228.383 C 186.620 228.605,186.723 228.684,186.849 228.558 C 186.975 228.432,187.288 228.503,187.544 228.716 C 187.801 228.929,188.013 228.967,188.016 228.800 C 188.019 228.633,188.173 228.732,188.358 229.018 C 188.560 229.331,188.697 229.374,188.700 229.126 C 188.703 228.898,188.510 228.590,188.271 228.441 C 187.545 227.988,186.620 227.956,186.620 228.383 M185.050 263.771 C 185.050 283.362,185.092 291.377,185.143 281.581 C 185.195 271.785,185.195 255.756,185.143 245.960 C 185.092 236.164,185.050 244.179,185.050 263.771 M189.748 228.844 C 189.394 229.271,189.417 229.366,189.879 229.366 C 190.189 229.366,190.443 229.131,190.443 228.844 C 190.443 228.558,190.384 228.323,190.312 228.323 C 190.240 228.323,189.986 228.558,189.748 228.844 M250.484 245.439 C 250.396 261.663,250.469 263.726,251.100 262.705 C 251.272 262.426,251.225 262.361,250.966 262.521 C 250.745 262.657,250.565 262.603,250.565 262.401 C 250.565 262.199,250.721 262.033,250.912 262.033 C 251.139 262.033,251.260 256.183,251.260 245.178 C 251.260 234.386,251.137 228.323,250.919 228.323 C 250.702 228.323,250.544 234.540,250.484 245.439 M246.047 230.277 C 246.047 230.739,246.141 230.763,246.568 230.408 C 246.855 230.170,247.089 229.917,247.089 229.845 C 247.089 229.772,246.855 229.713,246.568 229.713 C 246.281 229.713,246.047 229.967,246.047 230.277 M230.843 231.535 C 229.732 232.199,229.358 232.841,230.081 232.841 C 230.284 232.841,230.336 232.658,230.198 232.434 C 230.028 232.159,230.139 232.101,230.543 232.257 C 230.897 232.393,231.053 232.346,230.927 232.142 C 230.810 231.953,230.949 231.798,231.236 231.798 C 231.725 231.798,232.361 231.175,232.094 230.958 C 232.027 230.904,231.464 231.164,230.843 231.535 M195.921 255.975 C 196.012 280.751,196.013 280.780,196.740 281.169 C 197.263 281.449,197.574 281.452,197.844 281.183 C 198.315 280.711,198.490 279.683,198.052 279.953 C 197.875 280.063,197.813 280.287,197.915 280.452 C 198.017 280.617,197.941 280.850,197.747 280.970 C 197.553 281.090,197.394 281.006,197.394 280.783 C 197.394 280.560,197.159 280.467,196.872 280.577 C 196.412 280.754,196.351 277.897,196.351 256.135 C 196.351 242.581,196.234 231.419,196.090 231.331 C 195.947 231.242,195.871 242.332,195.921 255.975 M226.492 234.553 C 226.378 234.986,226.466 235.164,226.741 235.059 C 226.974 234.969,227.165 234.668,227.165 234.390 C 227.165 233.656,226.697 233.769,226.492 234.553 M224.583 235.503 C 224.155 235.983,223.816 236.557,223.829 236.780 C 223.842 237.003,224.025 236.827,224.236 236.389 C 224.447 235.951,224.822 235.670,225.070 235.765 C 225.625 235.978,225.930 235.552,225.602 235.022 C 225.442 234.763,225.096 234.927,224.583 235.503 M221.250 237.276 C 221.160 237.421,221.289 237.817,221.536 238.155 C 221.925 238.686,222.013 238.698,222.190 238.238 C 222.318 237.904,222.196 237.706,221.863 237.706 C 221.571 237.706,221.428 237.550,221.546 237.359 C 221.665 237.168,221.683 237.011,221.588 237.011 C 221.492 237.011,221.340 237.130,221.250 237.276 M219.809 238.491 L 219.114 239.186 219.983 238.747 C 221.098 238.183,221.126 238.155,220.788 237.959 C 220.632 237.869,220.191 238.108,219.809 238.491 M216.033 241.357 C 215.912 241.673,216.035 241.877,216.345 241.877 C 216.907 241.877,217.034 241.334,216.544 241.030 C 216.373 240.925,216.143 241.072,216.033 241.357 M213.516 242.632 C 213.373 242.863,213.427 242.931,213.644 242.797 C 213.848 242.671,214.076 242.748,214.149 242.969 C 214.223 243.190,214.472 243.308,214.704 243.231 C 214.971 243.142,214.875 242.935,214.442 242.665 C 213.938 242.350,213.696 242.342,213.516 242.632 M152.982 254.474 C 152.695 254.820,155.001 254.909,164.321 254.909 L 176.021 254.909 176.095 259.948 C 176.135 262.719,176.177 265.143,176.187 265.334 C 176.197 265.526,176.357 265.447,176.542 265.161 C 177.213 264.123,176.971 255.264,176.254 254.615 C 175.420 253.860,153.602 253.728,152.982 254.474 M235.931 258.149 C 234.951 258.779,234.721 259.179,235.127 259.542 C 235.269 259.670,235.256 259.552,235.099 259.281 C 234.893 258.926,234.957 258.843,235.328 258.985 C 235.630 259.101,236.030 258.887,236.289 258.472 C 236.650 257.894,236.791 257.852,237.041 258.246 C 237.287 258.635,237.349 258.611,237.353 258.123 C 237.360 257.386,237.110 257.390,235.931 258.149 M228.048 262.616 C 227.701 262.755,227.692 262.908,228.007 263.287 C 228.315 263.658,228.532 263.683,228.887 263.388 C 229.669 262.739,229.084 262.200,228.048 262.616 M226.652 263.797 C 226.721 264.002,226.925 264.170,227.107 264.170 C 227.288 264.170,227.493 264.002,227.562 263.797 C 227.630 263.591,227.425 263.423,227.107 263.423 C 226.788 263.423,226.584 263.591,226.652 263.797 M247.698 264.176 C 247.234 264.661,247.205 264.813,247.574 264.813 C 247.840 264.813,248.156 264.556,248.277 264.242 C 248.581 263.450,248.410 263.430,247.698 264.176 M223.942 265.324 C 224.068 266.181,224.500 266.369,224.500 265.566 C 224.500 265.152,224.358 264.813,224.184 264.813 C 224.009 264.813,223.901 265.043,223.942 265.324 M243.989 265.769 C 243.974 266.008,243.975 266.303,243.991 266.425 C 244.008 266.547,243.812 266.779,243.557 266.941 C 243.195 267.171,243.191 267.236,243.538 267.241 C 244.069 267.247,244.447 266.407,244.196 265.780 C 244.057 265.436,244.010 265.433,243.989 265.769 M220.157 267.195 C 220.052 267.469,220.048 267.775,220.148 267.875 C 220.248 267.975,220.330 267.908,220.330 267.725 C 220.330 267.543,220.666 267.368,221.077 267.338 C 221.488 267.307,221.993 267.112,222.201 266.904 C 222.472 266.633,222.264 266.551,221.463 266.612 C 220.850 266.659,220.262 266.921,220.157 267.195 M241.976 267.465 C 241.565 268.350,241.572 268.357,242.229 267.763 C 242.599 267.428,242.819 267.017,242.717 266.852 C 242.460 266.436,242.450 266.443,241.976 267.465 M216.507 269.703 C 216.507 270.343,216.565 270.365,217.029 269.902 C 217.315 269.615,217.550 269.291,217.550 269.182 C 217.550 269.073,217.315 268.983,217.029 268.983 C 216.733 268.983,216.507 269.295,216.507 269.703 M211.941 272.131 L 211.121 272.845 211.990 272.405 C 212.467 272.162,212.987 272.001,213.145 272.046 C 213.302 272.091,213.332 271.968,213.211 271.772 C 212.918 271.298,212.888 271.306,211.941 272.131 M210.026 273.083 C 209.673 273.452,209.149 273.841,208.862 273.948 C 208.489 274.086,208.538 274.148,209.036 274.164 C 209.418 274.176,209.965 274.034,210.252 273.849 C 210.539 273.664,210.617 273.507,210.426 273.501 C 210.235 273.495,210.308 273.345,210.589 273.167 C 210.871 272.990,211.004 272.747,210.885 272.628 C 210.766 272.510,210.380 272.714,210.026 273.083 M230.590 273.841 C 229.941 274.558,230.114 274.681,231.178 274.259 C 231.551 274.111,231.671 273.857,231.499 273.580 C 231.291 273.243,231.074 273.305,230.590 273.841 M227.096 275.605 C 226.985 275.783,227.161 275.825,227.493 275.697 C 227.898 275.542,228.009 275.599,227.838 275.875 C 227.500 276.422,227.798 276.393,228.263 275.833 C 228.544 275.494,228.471 275.372,227.965 275.334 C 227.596 275.306,227.205 275.428,227.096 275.605 M204.193 276.246 C 203.692 276.442,203.634 276.579,203.966 276.784 C 204.229 276.947,204.640 276.829,204.973 276.496 C 205.569 275.900,205.298 275.813,204.193 276.246 M226.170 276.170 C 226.510 276.307,226.467 276.477,225.996 276.857 C 225.421 277.321,225.435 277.331,226.161 276.978 C 226.946 276.597,226.926 275.909,226.131 275.961 C 225.850 275.980,225.863 276.047,226.170 276.170 M224.153 277.556 C 224.153 277.747,223.918 277.929,223.632 277.961 C 223.345 277.993,222.908 278.045,222.661 278.077 C 222.413 278.109,221.988 278.373,221.716 278.664 C 221.284 279.128,221.300 279.164,221.847 278.954 C 222.191 278.822,222.834 278.714,223.275 278.714 C 224.021 278.714,224.749 277.804,224.335 277.390 C 224.235 277.290,224.153 277.365,224.153 277.556 M201.564 278.040 C 201.564 278.242,201.435 278.328,201.278 278.231 C 201.121 278.134,200.732 278.359,200.413 278.732 C 200.094 279.104,199.979 279.409,200.157 279.409 C 200.335 279.409,200.578 279.250,200.699 279.056 C 200.819 278.862,201.064 278.793,201.243 278.904 C 201.422 279.015,201.662 278.862,201.776 278.564 C 201.891 278.267,202.148 278.125,202.349 278.249 C 202.562 278.380,202.611 278.307,202.466 278.073 C 202.155 277.570,201.564 277.548,201.564 278.040 M217.051 281.818 C 216.470 282.459,216.473 282.481,217.113 282.314 C 217.481 282.217,217.782 281.915,217.782 281.643 C 217.782 281.014,217.777 281.015,217.051 281.818 M214.683 282.944 C 213.959 283.700,213.937 283.811,214.509 283.810 C 215.219 283.809,216.278 282.653,215.741 282.466 C 215.493 282.380,215.017 282.595,214.683 282.944 M211.373 284.572 C 211.425 284.764,211.156 285.158,210.773 285.449 C 210.087 285.971,210.088 285.975,210.836 285.787 C 211.677 285.575,212.148 284.761,211.618 284.434 C 211.431 284.318,211.320 284.380,211.373 284.572 M203.867 289.319 C 203.559 289.627,203.125 289.767,202.903 289.630 C 202.661 289.480,202.592 289.531,202.732 289.758 C 202.867 289.976,202.634 290.199,202.178 290.287 C 201.745 290.370,201.900 290.391,202.523 290.332 C 203.598 290.230,204.973 289.305,204.601 288.933 C 204.505 288.837,204.175 289.011,203.867 289.319 M197.825 292.073 C 197.967 292.241,197.908 292.587,197.696 292.844 C 197.411 293.187,197.412 293.310,197.699 293.310 C 197.913 293.310,198.089 293.159,198.089 292.974 C 198.089 292.788,198.362 292.735,198.697 292.855 C 199.362 293.094,199.303 293.014,198.262 292.268 C 197.880 291.993,197.683 291.906,197.825 292.073 M195.303 294.015 C 195.096 294.403,194.777 294.628,194.596 294.516 C 194.414 294.404,194.266 294.477,194.266 294.680 C 194.266 295.149,194.851 295.159,195.138 294.695 C 195.258 294.500,195.491 294.425,195.656 294.526 C 195.821 294.628,196.069 294.528,196.207 294.305 C 196.375 294.032,196.307 293.992,195.998 294.182 C 195.664 294.389,195.599 294.308,195.760 293.888 C 196.070 293.079,195.758 293.166,195.303 294.015 M191.387 296.335 C 191.595 296.876,192.181 296.937,192.181 296.417 C 192.181 296.215,192.361 296.161,192.582 296.297 C 192.822 296.446,192.889 296.393,192.749 296.166 C 192.416 295.628,191.175 295.782,191.387 296.335 M189.293 297.026 C 188.893 297.674,189.606 298.244,190.089 297.662 C 190.338 297.362,190.442 297.016,190.319 296.893 C 190.196 296.770,190.093 296.891,190.090 297.162 C 190.086 297.571,190.034 297.574,189.786 297.183 C 189.622 296.923,189.400 296.853,189.293 297.026 M186.968 298.697 C 186.730 298.983,186.329 299.218,186.077 299.218 C 185.825 299.218,185.542 299.342,185.448 299.495 C 185.354 299.647,185.697 299.764,186.209 299.755 C 186.722 299.746,187.144 299.583,187.147 299.392 C 187.150 299.201,187.276 298.849,187.428 298.610 C 187.812 298.005,187.492 298.066,186.968 298.697 " stroke="none" fill="#f4f4f4" fill-rule="evenodd"></path><path id="path2" d="M142.208 76.642 C 142.311 76.745,149.848 76.820,158.958 76.810 C 169.929 76.797,175.753 76.914,176.206 77.156 C 176.595 77.365,176.890 77.383,176.890 77.200 C 176.890 77.022,176.642 76.782,176.340 76.666 C 175.662 76.406,141.948 76.382,142.208 76.642 M174.978 126.526 C 174.419 126.794,174.499 126.827,175.388 126.693 C 175.996 126.601,176.571 126.680,176.665 126.868 C 176.760 127.057,176.797 127.012,176.748 126.768 C 176.634 126.203,175.869 126.098,174.978 126.526 M168.636 138.834 C 168.141 139.396,168.081 139.705,168.465 139.705 C 168.611 139.705,168.925 139.392,169.163 139.010 C 169.659 138.216,169.289 138.093,168.636 138.834 M159.687 155.343 C 159.557 155.754,159.528 156.169,159.624 156.264 C 159.719 156.360,159.904 156.102,160.035 155.691 C 160.165 155.280,160.194 154.865,160.098 154.770 C 160.003 154.674,159.818 154.932,159.687 155.343 M158.654 167.554 C 158.863 168.639,159.079 168.710,159.079 167.695 C 159.079 167.209,158.951 166.811,158.795 166.811 C 158.639 166.811,158.575 167.145,158.654 167.554 M139.262 172.118 C 139.169 172.361,139.213 173.182,139.359 173.942 L 139.625 175.326 139.665 173.501 C 139.704 171.686,139.585 171.276,139.262 172.118 M165.421 180.017 C 165.626 180.400,165.968 180.712,166.183 180.712 C 166.397 180.712,166.289 180.400,165.943 180.017 C 165.597 179.635,165.254 179.322,165.182 179.322 C 165.109 179.322,165.217 179.635,165.421 180.017 M218.940 183.274 C 218.940 183.349,219.487 183.828,220.156 184.338 C 220.825 184.848,221.371 185.140,221.368 184.987 C 221.366 184.834,220.819 184.356,220.152 183.924 C 219.485 183.492,218.940 183.200,218.940 183.274 M210.003 189.512 C 210.029 190.242,210.173 190.916,210.325 191.009 C 210.666 191.221,210.624 190.207,210.243 189.053 C 209.998 188.308,209.963 188.374,210.003 189.512 M240.139 197.655 C 240.139 197.801,240.452 198.117,240.834 198.355 C 241.216 198.594,241.529 198.669,241.529 198.523 C 241.529 198.376,241.216 198.060,240.834 197.822 C 240.452 197.583,240.139 197.508,240.139 197.655 M208.514 200.169 C 208.801 200.357,209.414 200.513,209.875 200.516 C 210.991 200.523,210.708 200.325,209.209 200.050 C 208.354 199.893,208.148 199.929,208.514 200.169 M234.492 272.003 C 234.157 272.091,233.884 272.292,233.884 272.452 C 233.884 272.611,234.196 272.659,234.579 272.559 C 234.961 272.459,235.274 272.240,235.274 272.071 C 235.274 271.902,235.235 271.782,235.187 271.804 C 235.139 271.826,234.826 271.916,234.492 272.003 M225.891 277.203 C 224.627 278.126,224.711 278.153,226.325 277.344 C 226.851 277.081,227.281 276.734,227.281 276.573 C 227.281 276.186,227.290 276.182,225.891 277.203 " stroke="none" fill="#f8f4fc" fill-rule="evenodd"></path><path id="path3" d="M142.208 76.642 C 142.311 76.745,149.848 76.820,158.958 76.810 C 169.929 76.797,175.753 76.914,176.206 77.156 C 176.595 77.365,176.890 77.383,176.890 77.200 C 176.890 77.022,176.642 76.782,176.340 76.666 C 175.662 76.406,141.948 76.382,142.208 76.642 M174.978 126.526 C 174.419 126.794,174.499 126.827,175.388 126.693 C 175.996 126.601,176.571 126.680,176.665 126.868 C 176.760 127.057,176.797 127.012,176.748 126.768 C 176.634 126.203,175.869 126.098,174.978 126.526 M168.636 138.834 C 168.141 139.396,168.081 139.705,168.465 139.705 C 168.611 139.705,168.925 139.392,169.163 139.010 C 169.659 138.216,169.289 138.093,168.636 138.834 M159.687 155.343 C 159.557 155.754,159.528 156.169,159.624 156.264 C 159.719 156.360,159.904 156.102,160.035 155.691 C 160.165 155.280,160.194 154.865,160.098 154.770 C 160.003 154.674,159.818 154.932,159.687 155.343 M158.654 167.554 C 158.863 168.639,159.079 168.710,159.079 167.695 C 159.079 167.209,158.951 166.811,158.795 166.811 C 158.639 166.811,158.575 167.145,158.654 167.554 M139.262 172.118 C 139.169 172.361,139.213 173.182,139.359 173.942 L 139.625 175.326 139.665 173.501 C 139.704 171.686,139.585 171.276,139.262 172.118 M165.421 180.017 C 165.626 180.400,165.968 180.712,166.183 180.712 C 166.397 180.712,166.289 180.400,165.943 180.017 C 165.597 179.635,165.254 179.322,165.182 179.322 C 165.109 179.322,165.217 179.635,165.421 180.017 M218.940 183.274 C 218.940 183.349,219.487 183.828,220.156 184.338 C 220.825 184.848,221.371 185.140,221.368 184.987 C 221.366 184.834,220.819 184.356,220.152 183.924 C 219.485 183.492,218.940 183.200,218.940 183.274 M210.003 189.512 C 210.029 190.242,210.173 190.916,210.325 191.009 C 210.666 191.221,210.624 190.207,210.243 189.053 C 209.998 188.308,209.963 188.374,210.003 189.512 M240.139 197.655 C 240.139 197.801,240.452 198.117,240.834 198.355 C 241.216 198.594,241.529 198.669,241.529 198.523 C 241.529 198.376,241.216 198.060,240.834 197.822 C 240.452 197.583,240.139 197.508,240.139 197.655 M208.514 200.169 C 208.801 200.357,209.414 200.513,209.875 200.516 C 210.991 200.523,210.708 200.325,209.209 200.050 C 208.354 199.893,208.148 199.929,208.514 200.169 M234.492 272.003 C 234.157 272.091,233.884 272.292,233.884 272.452 C 233.884 272.611,234.196 272.659,234.579 272.559 C 234.961 272.459,235.274 272.240,235.274 272.071 C 235.274 271.902,235.235 271.782,235.187 271.804 C 235.139 271.826,234.826 271.916,234.492 272.003 M225.891 277.203 C 224.627 278.126,224.711 278.153,226.325 277.344 C 226.851 277.081,227.281 276.734,227.281 276.573 C 227.281 276.186,227.290 276.182,225.891 277.203 " stroke="none" fill="#f8f4fc" fill-rule="evenodd"></path><path id="path4" d="M142.208 76.642 C 142.311 76.745,149.848 76.820,158.958 76.810 C 169.929 76.797,175.753 76.914,176.206 77.156 C 176.595 77.365,176.890 77.383,176.890 77.200 C 176.890 77.022,176.642 76.782,176.340 76.666 C 175.662 76.406,141.948 76.382,142.208 76.642 M174.978 126.526 C 174.419 126.794,174.499 126.827,175.388 126.693 C 175.996 126.601,176.571 126.680,176.665 126.868 C 176.760 127.057,176.797 127.012,176.748 126.768 C 176.634 126.203,175.869 126.098,174.978 126.526 M168.636 138.834 C 168.141 139.396,168.081 139.705,168.465 139.705 C 168.611 139.705,168.925 139.392,169.163 139.010 C 169.659 138.216,169.289 138.093,168.636 138.834 M159.687 155.343 C 159.557 155.754,159.528 156.169,159.624 156.264 C 159.719 156.360,159.904 156.102,160.035 155.691 C 160.165 155.280,160.194 154.865,160.098 154.770 C 160.003 154.674,159.818 154.932,159.687 155.343 M158.654 167.554 C 158.863 168.639,159.079 168.710,159.079 167.695 C 159.079 167.209,158.951 166.811,158.795 166.811 C 158.639 166.811,158.575 167.145,158.654 167.554 M139.262 172.118 C 139.169 172.361,139.213 173.182,139.359 173.942 L 139.625 175.326 139.665 173.501 C 139.704 171.686,139.585 171.276,139.262 172.118 M165.421 180.017 C 165.626 180.400,165.968 180.712,166.183 180.712 C 166.397 180.712,166.289 180.400,165.943 180.017 C 165.597 179.635,165.254 179.322,165.182 179.322 C 165.109 179.322,165.217 179.635,165.421 180.017 M218.940 183.274 C 218.940 183.349,219.487 183.828,220.156 184.338 C 220.825 184.848,221.371 185.140,221.368 184.987 C 221.366 184.834,220.819 184.356,220.152 183.924 C 219.485 183.492,218.940 183.200,218.940 183.274 M210.003 189.512 C 210.029 190.242,210.173 190.916,210.325 191.009 C 210.666 191.221,210.624 190.207,210.243 189.053 C 209.998 188.308,209.963 188.374,210.003 189.512 M240.139 197.655 C 240.139 197.801,240.452 198.117,240.834 198.355 C 241.216 198.594,241.529 198.669,241.529 198.523 C 241.529 198.376,241.216 198.060,240.834 197.822 C 240.452 197.583,240.139 197.508,240.139 197.655 M208.514 200.169 C 208.801 200.357,209.414 200.513,209.875 200.516 C 210.991 200.523,210.708 200.325,209.209 200.050 C 208.354 199.893,208.148 199.929,208.514 200.169 M234.492 272.003 C 234.157 272.091,233.884 272.292,233.884 272.452 C 233.884 272.611,234.196 272.659,234.579 272.559 C 234.961 272.459,235.274 272.240,235.274 272.071 C 235.274 271.902,235.235 271.782,235.187 271.804 C 235.139 271.826,234.826 271.916,234.492 272.003 M225.891 277.203 C 224.627 278.126,224.711 278.153,226.325 277.344 C 226.851 277.081,227.281 276.734,227.281 276.573 C 227.281 276.186,227.290 276.182,225.891 277.203 " stroke="none" fill="#f8f4fc" fill-rule="evenodd"></path></g></svg>